<?xml version="1.0" encoding="utf-8"?>
<!-- Generator: Adobe Illustrator 25.2.3, SVG Export Plug-In . SVG Version: 6.00 Build 0)  -->
<svg version="1.1" id="Layer_1" xmlns="http://www.w3.org/2000/svg" xmlns:xlink="http://www.w3.org/1999/xlink" x="0px" y="0px"
	 width="2345.7px" height="1931.8px" viewBox="0 0 2345.7 1931.8" style="enable-background:new 0 0 2345.7 1931.8;"
	 xml:space="preserve">
<style type="text/css">
	.st0{fill:#E84545;stroke:#000000;stroke-miterlimit:10;}
	.st1{fill:#FFFFFF;}
	.st2{fill:none;stroke:#000000;stroke-linecap:round;stroke-linejoin:round;stroke-miterlimit:10;}
	.st3{fill:#FFFFFF;stroke:#000000;stroke-linecap:round;stroke-linejoin:round;stroke-miterlimit:10;}
	.st4{fill:#FFFFFF;stroke:#000000;stroke-miterlimit:10;}
	.st5{font-family:Helvetica, Arial, Sans-Serif;font-weight:bold;}
	.st6{font-size:92px;}
	.st7{font-size:50px;}
	.st8{font-family:Helvetica, Arial, Sans-Serif;}
</style>
<g id="Layer_1_1_">
</g>
<path class="st0" d="M166.1,813.7c-5.3,16.4,0.6,35.3,12.9,47.5c12.2,12.1,30,17.9,47.2,17.5c9.5-0.2,19.2-2.3,27-7.7
	c8.6-5.9,14.2-15.5,16.9-25.5c4.8-17.8,0.5-38.4-12.7-51.2c-15.8-15.4-32.8-16.5-51.4-12.7C187.6,785.1,172.9,792.4,166.1,813.7z"/>
<path class="st0" d="M266,366.5c-5.3,16.4,0.6,35.3,12.9,47.5s30,17.9,47.2,17.5c9.5-0.2,19.2-2.3,27-7.7
	c8.6-5.9,14.2-15.5,16.9-25.5c4.8-17.8,0.5-38.4-12.7-51.2c-15.8-15.4-32.8-16.5-51.4-12.7C287.5,337.9,272.8,345.2,266,366.5z"/>
<path class="st1" d="M304.7,407.6c-1.6,25.9-0.2,46.3-0.7,69.7c-0.4,16.6,0.8,33.7,1.3,50.2c15.2-18.7,32.3-35.8,50.3-51.9
	c5.1-4.5,10.6-9.4,12.1-16.1c1-4.5,5.3-6.8,8.5-10.1c4.7-4.9,6.8-11.6,9.8-17.7c3.6-7.3,8.6-13.8,13.6-20.3
	c4.8-6.2,9.5-12.4,14.3-18.5c1.1-1.4,2.3-2.7,3.2-4.2c2.2-3.6,5.1-6.6,7.7-9.9s4.9-7.1,5.2-11.2c-8.1,3.5-16.6,7-24.8,10.5
	c-9.2,4-19.2,7.1-28.6,10.7c-2.2,0.8-3.4,1.7-5.6,2.4c-6.1,2.2-12.2,3.4-18.3,5.4c-8,2.6-17.1,4.6-24.9,6.2
	c-0.1-0.2-1.6,0.6-1.7,0.4C319,404.6,311.8,406.3,304.7,407.6z"/>
<path class="st1" d="M206.6,338.8c0.6,12.4,1.2,24.8,1.8,37.3c0.5,10.3,0.1,21.9,0.9,32.2c1.4,19.3,2.1,37.1,3.9,56.4
	c31.2-17.7,62.6-35,91.1-56.7c-2.3-2.4-6.1-4.9-9.1-7.2c-3.6-2.7-7.9-5-11.4-7.8c-5.2-4.1-10.4-7.1-15.5-10.9
	c-1.8-1.3-3.2-2.5-5.1-3.6c-1.7-1.2-2.8-1.8-4-2.8c-1.1-0.9-2.3-1.7-3.7-2.6c-1.7-1.2-3.4-2.8-5.1-3.9c-1-0.7-3.9-2.7-3.9-2.4
	c-6.6-4.1-11.5-8.8-17.8-13.4c-6.1-4.4-12.2-9-18.3-13.4C209.1,339,208,338.6,206.6,338.8z"/>
<path class="st2" d="M346.5,306c2.4,1.6,4.6,3.5,7,5.1c26,17.5,53,35.4,76.7,56c-1.8,1.2-5,3-7,4c-36.7,17.5-78.5,29.1-118.5,36.5
	c-33.2-23.4-64.9-45.6-98.1-69.1C252,322.7,298.8,312.2,346.5,306z"/>
<path class="st3" d="M206.6,338.6c2.1,41.5,4.2,84.7,6.3,126.2"/>
<path class="st3" d="M212.9,464.8c30.3,21.4,60.6,41.9,90.9,63.3c0-4.4,0.4-5.8,0.5-12.6c0.2,0.9,0-4.4,0.1-3.6
	c-1.7-35.9-2.5-68.5,0.3-104.3"/>
<path class="st3" d="M303.8,528.1c42.1-10.2,84.5-25.8,124.8-41.8c-2.6-38.7-2.5-80.6,1.6-119.1"/>
<path class="st4" d="M206.6,338.6c2.1,41.5,4.2,84.7,6.3,126.2"/>
<path class="st1" d="M829.1,413.9c-1.6,25.9-1,46.6-1.6,70c-0.4,16.6,0.8,33.7,1.3,50.2c15.2-18.7,32.3-35.8,50.3-51.9
	c5.1-4.5,10.6-9.4,12.1-16.1c1-4.5,5.3-6.8,8.5-10.1c4.7-4.9,6.8-11.6,9.8-17.7c3.6-7.3,8.6-13.8,13.6-20.3
	c4.8-6.2,9.5-12.4,14.3-18.5c1.1-1.4,2.3-2.7,3.2-4.2c2.2-3.6,5.1-6.6,7.7-9.9s4.9-7.1,5.2-11.2c-8.1,3.5-16.6,7-24.8,10.5
	c-9.2,4-19.2,7.1-28.6,10.7c-2.2,0.8-4.9,1.4-7,2.4c-5.8,2.7-12.5,2.8-18.5,5c-7.5,2.7-15.8,4.5-23.6,6.1c-0.1-0.2-0.9,0.4-1,0.2
	C842.9,410.5,836.2,412.6,829.1,413.9z"/>
<path class="st1" d="M730.1,345.4c0.6,12.4,1.2,24.8,1.8,37.3c0.5,10.3,0.1,21.9,0.9,32.2c1.4,19.3,2.1,37.1,3.9,56.4
	c31.2-17.7,62.2-34.2,90.8-55.9c-1.9-3-5.7-6.9-8.8-8.7c-3.9-2.3-7.5-5.1-10.6-8.3c-4.4-4.6-11.2-6.3-16-10.4
	c-1.7-1.4-3.3-2.9-5.2-3.9c-1.6,0-3.2-1-4.2-2.3s-1.9-2.7-3.2-3.7c-1.7-1.2-3.9-1.3-5.6-2.4c-1-0.7-1.8-1.7-2.3-2.8
	c0,0.1,0.4-0.5,0.4-0.4c0,0.3-0.3,0-0.3,0.3c-6.6-4.1-13.1-8.4-19.5-12.9c-6.1-4.4-12.2-9-18.3-13.4
	C732.6,345.6,731.5,345.2,730.1,345.4z"/>
<path class="st3" d="M870,312.7c2.4,1.6,4.6,3.5,7,5.1c26,17.5,53,35.4,76.7,56c-1.8,1.2-5,3-7,4c-36.7,17.5-78.5,29.1-118.5,36.5
	c-33.2-23.4-64.9-45.6-98.1-69.1C775.5,329.4,822.3,318.8,870,312.7z"/>
<path class="st3" d="M730.1,345.2c2.1,41.5,4.2,84.7,6.3,126.2"/>
<path class="st3" d="M736.4,471.4c30.3,21.4,60.6,41.9,90.9,63.3c0-4.4,0.4-5.8,0.5-12.6c0.2,0.9,0-4.4,0.1-3.6
	c-1.7-35.9-2.5-68.5,0.3-104.3"/>
<path class="st3" d="M827.3,534.7c42.1-10.2,84.5-25.8,124.8-41.8c-2.6-38.7-2.5-80.6,1.6-119.1"/>
<path class="st4" d="M730.1,345.2c2.1,41.5,4.2,84.7,6.3,126.2"/>
<path class="st0" d="M789.9,316.7c-5.3,16.4,0.6,35.3,12.9,47.5c12.2,12.1,30,17.9,47.2,17.5c9.5-0.2,19.2-2.3,27-7.7
	c8.6-5.9,14.2-15.5,16.9-25.5c4.8-17.8,0.5-38.4-12.7-51.2c-15.8-15.4-32.8-16.5-51.4-12.7C811.4,288.2,796.7,295.4,789.9,316.7z"/>
<path class="st0" d="M1330.5,490c-5.3,16.4,0.6,35.3,12.9,47.5c12.2,12.1,30,17.9,47.2,17.5c9.5-0.2,19.2-2.3,27-7.7
	c8.6-5.9,14.2-15.5,16.9-25.5c4.8-17.8,0.5-38.4-12.7-51.2c-15.8-15.4-32.8-16.5-51.4-12.7C1352,461.4,1337.3,468.7,1330.5,490z"/>
<path class="st1" d="M1375.4,375.2c-1.6,25.9-1,46.6-1.6,70c-0.4,16.6,0.8,33.7,1.3,50.2c15.2-18.7,32.3-35.8,50.3-51.9
	c5.1-4.5,10.6-9.4,12.1-16.1c1-4.5,5.3-6.8,8.5-10.1c4.7-4.9,6.8-11.6,9.8-17.7c3.6-7.3,8.6-13.8,13.6-20.3
	c4.8-6.2,9.5-12.4,14.3-18.5c1.1-1.4,2.3-2.7,3.2-4.2c2.2-3.6,5.1-6.6,7.7-9.9s4.9-7.1,5.2-11.2c-8.1,3.5-16.6,7-24.8,10.5
	c-9.2,4-19.2,7.1-28.6,10.7c-2.2,0.8-4.9,1.4-7,2.4c-5.8,2.7-12.5,2.8-18.5,5c-7.5,2.7-15.8,4.5-23.6,6.1c-0.1-0.2-0.9,0.4-1,0.2
	C1389.2,371.8,1382.5,373.9,1375.4,375.2z"/>
<path class="st1" d="M1276.4,306.7c0.6,12.4,1.2,24.8,1.8,37.3c0.5,10.3,0.1,21.9,0.9,32.2c1.4,19.3,2.1,37.1,3.9,56.4
	c31.2-17.7,62.2-34.2,90.8-55.9c-1.9-3-5.7-6.9-8.8-8.7c-3.9-2.3-7.5-5.1-10.6-8.3c-4.4-4.6-11.2-6.3-16-10.4
	c-1.7-1.4-3.3-2.9-5.2-3.9c-1.6,0-3.2-1-4.2-2.3s-1.9-2.7-3.2-3.7c-1.7-1.2-3.9-1.3-5.6-2.4c-1-0.7-1.8-1.7-2.3-2.8
	c0,0.1,0.4-0.5,0.4-0.4c0,0.3-0.3,0-0.3,0.3c-6.6-4.1-13.1-8.4-19.5-12.9c-6.1-4.4-12.2-9-18.3-13.4
	C1278.9,306.9,1277.8,306.5,1276.4,306.7z"/>
<path class="st3" d="M1416.3,273.9c2.4,1.6,4.6,3.5,7,5.1c26,17.5,53,35.4,76.7,56c-1.8,1.2-5,3-7,4
	c-36.7,17.5-78.5,29.1-118.5,36.5c-33.2-23.4-64.9-45.6-98.1-69.1C1321.8,290.6,1368.6,280.1,1416.3,273.9z"/>
<path class="st3" d="M1276.4,306.5c2.1,41.5,4.2,84.7,6.3,126.2"/>
<path class="st3" d="M1282.6,432.7c30.3,21.4,60.6,41.9,90.9,63.3c0-4.4,0.4-5.8,0.5-12.6c0.2,0.9,0-4.4,0.1-3.6
	c-1.7-35.9-2.5-68.5,0.3-104.3"/>
<path class="st3" d="M1373.6,496c42.1-10.2,84.5-25.8,124.8-41.8c-2.6-38.7-2.5-80.6,1.6-119.1"/>
<path class="st4" d="M1276.4,306.5c2.1,41.5,4.2,84.7,6.3,126.2"/>
<path class="st1" d="M1910.8,405.7c-1.6,25.9-1,46.6-1.6,70c-0.4,16.6,0.8,33.7,1.3,50.2c15.2-18.7,32.3-35.8,50.3-51.9
	c5.1-4.5,10.6-9.4,12.1-16.1c1-4.5,5.3-6.8,8.5-10.1c4.7-4.9,6.8-11.6,9.8-17.7c3.6-7.3,8.6-13.8,13.6-20.3
	c4.8-6.2,9.5-12.4,14.3-18.5c1.1-1.4,2.3-2.7,3.2-4.2c2.2-3.6,5.1-6.6,7.7-9.9s4.9-7.1,5.2-11.2c-8.1,3.5-16.6,7-24.8,10.5
	c-9.2,4-19.2,7.1-28.6,10.7c-2.2,0.8-4.9,1.4-7,2.4c-5.8,2.7-12.5,2.8-18.5,5c-7.5,2.7-15.8,4.5-23.6,6.1c-0.1-0.2-0.9,0.4-1,0.2
	C1924.7,402.3,1917.9,404.4,1910.8,405.7z"/>
<path class="st1" d="M1811.8,337.2c0.6,12.4,1.2,24.8,1.8,37.3c0.5,10.3,0.1,21.9,0.9,32.2c1.4,19.3,2.1,37.1,3.9,56.4
	c31.2-17.7,62.2-34.2,90.8-55.9c-1.9-3-5.7-6.9-8.8-8.7c-3.9-2.3-7.5-5.1-10.6-8.3c-4.4-4.6-11.2-6.3-16-10.4
	c-1.7-1.4-3.3-2.9-5.2-3.9c-1.6,0-3.2-1-4.2-2.3s-1.9-2.7-3.2-3.7c-1.7-1.2-3.9-1.3-5.6-2.4c-1-0.7-1.8-1.7-2.3-2.8
	c0,0.1,0.4-0.5,0.4-0.4c0,0.3-0.3,0-0.3,0.3c-6.6-4.1-13.1-8.4-19.5-12.9c-6.1-4.4-12.2-9-18.3-13.4
	C1814.3,337.4,1813.3,337.1,1811.8,337.2z"/>
<path class="st3" d="M1951.7,304.5c2.4,1.6,4.6,3.5,7,5.1c26,17.5,53,35.4,76.7,56c-1.8,1.2-5,3-7,4
	c-36.7,17.5-78.5,29.1-118.5,36.5c-33.2-23.4-64.9-45.6-98.1-69.1C1857.2,321.2,1904,310.6,1951.7,304.5z"/>
<path class="st3" d="M1811.8,337c2.1,41.5,4.2,84.7,6.3,126.2"/>
<path class="st3" d="M1818.1,463.2c30.3,21.4,60.6,41.9,90.9,63.3c0-4.4,0.4-5.8,0.5-12.6c0.2,0.9,0-4.4,0.1-3.6
	c-1.7-35.9-2.5-68.5,0.3-104.3"/>
<path class="st3" d="M1909,526.5c42.1-10.2,84.5-25.8,124.8-41.8c-2.6-38.7-2.5-80.6,1.6-119.1"/>
<path class="st4" d="M1811.8,337c2.1,41.5,4.2,84.7,6.3,126.2"/>
<path class="st0" d="M2018.4,450.9c-5.3,16.4,0.6,35.3,12.9,47.5c12.2,12.1,30,17.9,47.2,17.5c9.5-0.2,19.2-2.3,27-7.7
	c8.6-5.9,14.2-15.5,16.9-25.5c4.8-17.8,0.5-38.4-12.7-51.2c-15.8-15.4-32.8-16.5-51.4-12.7C2039.9,422.3,2025.2,429.6,2018.4,450.9z
	"/>
<path class="st1" d="M1375.4,905.3c-1.6,25.9-1,46.6-1.6,70c-0.4,16.6,0.8,33.7,1.3,50.2c15.2-18.7,32.3-35.8,50.3-51.9
	c5.1-4.5,10.6-9.4,12.1-16.1c1-4.5,5.3-6.8,8.5-10.1c4.7-4.9,6.8-11.6,9.8-17.7c3.6-7.3,8.6-13.8,13.6-20.3
	c4.8-6.2,9.5-12.4,14.3-18.5c1.1-1.4,2.3-2.7,3.2-4.2c2.2-3.6,5.1-6.6,7.7-9.9s4.9-7.1,5.2-11.2c-8.1,3.5-16.6,7-24.8,10.5
	c-9.2,4-19.2,7.1-28.6,10.7c-2.2,0.8-4.9,1.4-7,2.4c-5.8,2.7-12.5,2.8-18.5,5c-7.5,2.7-15.8,4.5-23.6,6.1c-0.1-0.2-0.9,0.4-1,0.2
	C1389.2,901.9,1382.5,904,1375.4,905.3z"/>
<path class="st1" d="M1276.4,836.8c0.6,12.4,1.2,24.8,1.8,37.3c0.5,10.3,0.1,21.9,0.9,32.2c1.4,19.3,2.1,37.1,3.9,56.4
	c31.2-17.7,62.2-34.2,90.8-55.9c-1.9-3-5.7-6.9-8.8-8.7c-3.9-2.3-7.5-5.1-10.6-8.3c-4.4-4.6-11.2-6.3-16-10.4
	c-1.7-1.4-3.3-2.9-5.2-3.9c-1.6,0-3.2-1-4.2-2.3s-1.9-2.7-3.2-3.7c-1.7-1.2-3.9-1.3-5.6-2.4c-1-0.7-1.8-1.7-2.3-2.8
	c0,0.1,0.4-0.5,0.4-0.4c0,0.3-0.3,0-0.3,0.3c-6.6-4.1-13.1-8.4-19.5-12.9c-6.1-4.4-12.2-9-18.3-13.4
	C1278.9,837,1277.8,836.7,1276.4,836.8z"/>
<path class="st3" d="M1416.3,804.1c2.4,1.6,4.6,3.5,7,5.1c26,17.5,53,35.4,76.7,56c-1.8,1.2-5,3-7,4
	c-36.7,17.5-78.5,29.1-118.5,36.5c-33.2-23.4-64.9-45.6-98.1-69.1C1321.8,820.8,1368.6,810.2,1416.3,804.1z"/>
<path class="st3" d="M1276.4,836.6c2.1,41.5,4.2,84.7,6.3,126.2"/>
<path class="st3" d="M1282.6,962.8c30.3,21.4,60.6,41.9,90.9,63.3c0-4.4,0.4-5.8,0.5-12.6c0.2,0.9,0-4.4,0.1-3.6
	c-1.7-35.9-2.5-68.5,0.3-104.3"/>
<path class="st3" d="M1373.6,1026.1c42.1-10.2,84.5-25.8,124.8-41.8c-2.6-38.7-2.5-80.6,1.6-119.1"/>
<path class="st4" d="M1276.4,836.6c2.1,41.5,4.2,84.7,6.3,126.2"/>
<path class="st0" d="M1404.7,962.7c-5.3,16.4,0.6,35.3,12.9,47.5s30,17.9,47.2,17.5c9.5-0.2,19.2-2.3,27-7.7
	c8.6-5.9,14.2-15.5,16.9-25.5c4.8-17.8,0.5-38.4-12.7-51.2c-15.8-15.4-32.8-16.5-51.4-12.7C1426.2,934.1,1411.5,941.4,1404.7,962.7z
	"/>
<path class="st1" d="M825.5,902.1c-1.6,25.9-1,46.6-1.6,70c-0.4,16.6,0.8,33.7,1.3,50.2c15.2-18.7,32.3-35.8,50.3-51.9
	c5.1-4.5,10.6-9.4,12.1-16.1c1-4.5,5.3-6.8,8.5-10.1c4.7-4.9,6.8-11.6,9.8-17.7c3.6-7.3,8.6-13.8,13.6-20.3
	c4.8-6.2,9.5-12.4,14.3-18.5c1.1-1.4,2.3-2.7,3.2-4.2c2.2-3.6,5.1-6.6,7.7-9.9s4.9-7.1,5.2-11.2c-8.1,3.5-16.6,7-24.8,10.5
	c-9.2,4-19.2,7.1-28.6,10.7c-2.2,0.8-4.9,1.4-7,2.4c-5.8,2.7-12.5,2.8-18.5,5c-7.5,2.7-15.8,4.5-23.6,6.1c-0.1-0.2-0.9,0.4-1,0.2
	C839.3,898.7,832.6,900.8,825.5,902.1z"/>
<path class="st1" d="M726.5,833.6c0.6,12.4,1.2,24.8,1.8,37.3c0.5,10.3,0.1,21.9,0.9,32.2c1.4,19.3,2.1,37.1,3.9,56.4
	c31.2-17.7,62.2-34.2,90.8-55.9c-1.9-3-5.7-6.9-8.8-8.7c-3.9-2.3-7.5-5.1-10.6-8.3c-4.4-4.6-11.2-6.3-16-10.4
	c-1.7-1.4-3.3-2.9-5.2-3.9c-1.6,0-3.2-1-4.2-2.3s-1.9-2.7-3.2-3.7c-1.7-1.2-3.9-1.3-5.6-2.4c-1-0.7-1.8-1.7-2.3-2.8
	c0,0.1,0.4-0.5,0.4-0.4c0,0.3-0.3,0-0.3,0.3c-6.6-4.1-13.1-8.4-19.5-12.9c-6.1-4.4-12.2-9-18.3-13.4
	C729,833.8,727.9,833.4,726.5,833.6z"/>
<path class="st3" d="M866.4,800.9c2.4,1.6,4.6,3.5,7,5.1c26,17.5,53,35.4,76.7,56c-1.8,1.2-5,3-7,4c-36.7,17.5-78.5,29.1-118.5,36.5
	c-33.2-23.4-64.9-45.6-98.1-69.1C771.9,817.5,818.7,807,866.4,800.9z"/>
<path class="st3" d="M726.5,833.4c2.1,41.5,4.2,84.7,6.3,126.2"/>
<path class="st3" d="M732.8,959.6c30.3,21.4,60.6,41.9,90.9,63.3c0-4.4,0.4-5.8,0.5-12.6c0.2,0.9,0-4.4,0.1-3.6
	c-1.7-35.9-2.5-68.5,0.3-104.3"/>
<path class="st3" d="M823.7,1022.9c42.1-10.2,84.5-25.8,124.8-41.8c-2.6-38.7-2.5-80.6,1.6-119.1"/>
<path class="st4" d="M726.5,833.4c2.1,41.5,4.2,84.7,6.3,126.2"/>
<path class="st0" d="M772.6,962.7c-5.3,16.4,0.6,35.3,12.9,47.5c12.2,12.1,30,17.9,47.2,17.5c9.5-0.2,19.2-2.3,27-7.7
	c8.6-5.9,14.2-15.5,16.9-25.5c4.8-17.8,0.5-38.4-12.7-51.2c-15.8-15.4-32.8-16.5-51.4-12.7C794.1,934.1,779.4,941.4,772.6,962.7z"/>
<path class="st1" d="M301.1,897.3c-1.6,25.9-1,46.6-1.6,70c-0.4,16.6,0.8,33.7,1.3,50.2c15.2-18.7,32.3-35.8,50.3-51.9
	c5.1-4.5,10.6-9.4,12.1-16.1c1-4.5,5.3-6.8,8.5-10.1c4.7-4.9,6.8-11.6,9.8-17.7c3.6-7.3,8.6-13.8,13.6-20.3
	c4.8-6.2,9.5-12.4,14.3-18.5c1.1-1.4,2.3-2.7,3.2-4.2c2.2-3.6,5.1-6.6,7.7-9.9c2.6-3.3,4.9-7.1,5.2-11.2c-8.1,3.5-16.6,7-24.8,10.5
	c-9.2,4-19.2,7.1-28.6,10.7c-2.2,0.8-4.9,1.4-7,2.4c-5.8,2.7-12.5,2.8-18.5,5c-7.5,2.7-15.8,4.5-23.6,6.1c-0.1-0.2-0.9,0.4-1,0.2
	C314.9,893.9,308.2,896,301.1,897.3z"/>
<path class="st1" d="M202.1,828.8c0.6,12.4,1.2,24.8,1.8,37.3c0.5,10.3,0.1,21.9,0.9,32.2c1.4,19.3,2.1,37.1,3.9,56.4
	c31.2-17.7,62.2-34.2,90.8-55.9c-1.9-3-5.7-6.9-8.8-8.7c-3.9-2.3-7.5-5.1-10.6-8.3c-4.4-4.6-11.2-6.3-16-10.4
	c-1.7-1.4-3.3-2.9-5.2-3.9c-1.6,0-3.2-1-4.2-2.3s-1.9-2.7-3.2-3.7c-1.7-1.2-3.9-1.3-5.6-2.4c-1-0.7-1.8-1.7-2.3-2.8
	c0,0.1,0.4-0.5,0.4-0.4c0,0.3-0.3,0-0.3,0.3c-6.6-4.1-13.1-8.4-19.5-12.9c-6.1-4.4-12.2-9-18.3-13.4
	C204.6,829,203.5,828.6,202.1,828.8z"/>
<path class="st3" d="M342,796c2.4,1.6,4.6,3.5,7,5.1c26,17.5,53,35.4,76.7,56c-1.8,1.2-5,3-7,4c-36.7,17.5-78.5,29.1-118.5,36.5
	c-33.2-23.4-64.9-45.6-98.1-69.1C247.5,812.7,294.3,802.2,342,796z"/>
<path class="st3" d="M202.1,828.5c2.1,41.5,4.2,84.7,6.3,126.2"/>
<path class="st3" d="M208.4,954.8c30.3,21.4,60.6,41.9,90.9,63.3c0-4.4,0.4-5.8,0.5-12.6c0.2,0.9,0-4.4,0.1-3.6
	c-1.7-35.9-2.5-68.5,0.3-104.3"/>
<path class="st3" d="M299.3,1018.1c42.1-10.2,84.5-25.8,124.8-41.8c-2.6-38.7-2.5-80.6,1.6-119.1"/>
<path class="st4" d="M202.1,828.5c2.1,41.5,4.2,84.7,6.3,126.2"/>
<path class="st1" d="M1295.6,1385.3c-1.1,17.9-0.7,32.2-1.1,48.4c-0.3,11.5,0.5,23.3,0.9,34.7c10.5-13,22.3-24.8,34.8-35.9
	c3.5-3.1,7.3-6.5,8.4-11.1c0.7-3.1,3.7-4.7,5.9-7c3.2-3.4,4.7-8,6.8-12.2c2.5-5.1,6-9.6,9.4-14c3.3-4.3,6.6-8.6,9.9-12.8
	c0.7-1,1.6-1.9,2.2-2.9c1.5-2.5,3.6-4.6,5.3-6.8s3.4-4.9,3.6-7.8c-5.6,2.4-11.5,4.9-17.1,7.3c-6.4,2.8-13.3,4.9-19.8,7.4
	c-1.5,0.6-3.4,1-4.8,1.7c-4,1.9-8.6,1.9-12.8,3.5c-5.2,1.9-10.9,3.1-16.3,4.2c-0.1-0.1-0.6,0.3-0.7,0.1
	C1305.2,1383,1300.5,1384.4,1295.6,1385.3z"/>
<path class="st1" d="M1227.1,1338c0.4,8.6,0.8,17.2,1.2,25.8c0.3,7.1,0.1,15.1,0.6,22.2c1,13.3,1.4,25.7,2.7,39
	c21.6-12.2,43-23.7,62.8-38.6c-1.3-2.1-3.9-4.8-6.1-6c-2.7-1.6-5.2-3.5-7.3-5.8c-3.1-3.2-7.7-4.3-11.1-7.2c-1.2-1-2.3-2-3.6-2.7
	c-1.1,0-2.2-0.7-2.9-1.6c-0.7-0.9-1.3-1.9-2.2-2.5c-1.2-0.8-2.7-0.9-3.9-1.7c-0.7-0.5-1.3-1.2-1.6-1.9c0,0.1,0.3-0.3,0.3-0.3
	c0,0.2-0.2,0-0.2,0.2c-4.6-2.8-9.1-5.8-13.5-8.9c-4.2-3-8.4-6.2-12.7-9.3C1228.9,1338.1,1228.1,1337.8,1227.1,1338z"/>
<path class="st3" d="M1323.9,1315.3c1.7,1.1,3.2,2.4,4.9,3.5c18,12.1,36.7,24.5,53,38.7c-1.3,0.8-3.5,2.1-4.9,2.8
	c-25.4,12.1-54.3,20.1-81.9,25.2c-23-16.2-44.9-31.5-67.8-47.8C1258.5,1326.9,1290.9,1319.6,1323.9,1315.3z"/>
<path class="st3" d="M1227.1,1337.8c1.5,28.7,2.9,58.6,4.3,87.3"/>
<path class="st3" d="M1231.5,1425.1c21,14.8,41.9,29,62.9,43.8c0-3,0.3-4,0.3-8.7c0.1,0.6,0-3.1,0.1-2.5
	c-1.1-24.8-1.7-47.3,0.2-72.1"/>
<path class="st3" d="M1294.4,1468.9c29.1-7.1,58.5-17.8,86.3-28.9c-1.8-26.7-1.7-55.8,1.1-82.4"/>
<path class="st4" d="M1227.1,1337.8c1.5,28.7,2.9,58.6,4.3,87.3"/>
<path class="st0" d="M1459,1573.4c-3.7,11.4,0.4,24.6,9,33.1s20.9,12.5,32.9,12.2c6.6-0.2,13.4-1.6,18.8-5.4
	c6-4.1,9.9-10.8,11.8-17.8c3.4-12.4,0.4-26.7-8.9-35.7c-11-10.7-22.8-11.5-35.8-8.9C1473.9,1553.4,1463.7,1558.5,1459,1573.4z"/>
<text transform="matrix(1 0 0 1 705.0558 145.906)" class="st5 st6">Prepositions of Place</text>
<g id="Layer_12">
</g>
<g id="Layer_10">
</g>
<g id="Layer_9">
</g>
<g id="Layer_5">
	<g>
		<path class="st1" d="M1836.7,1479c-1.1,16.8-0.7,30.2-1,45.4c-0.2,10.7,0.5,21.8,0.8,32.5c9.8-12.1,20.9-23.2,32.6-33.6
			c3.3-2.9,6.9-6.1,7.9-10.4c0.7-2.9,3.5-4.4,5.5-6.6c3-3.2,4.4-7.5,6.4-11.5c2.3-4.7,5.6-9,8.8-13.1c3.1-4,6.2-8,9.2-12
			c0.7-0.9,1.5-1.8,2.1-2.7c1.4-2.3,3.3-4.3,5-6.4s3.1-4.6,3.4-7.3c-5.3,2.3-10.8,4.5-16,6.8c-6,2.6-12.5,4.6-18.5,6.9
			c-1.4,0.5-3.2,0.9-4.5,1.6c-3.8,1.7-8.1,1.8-12,3.2c-4.9,1.8-10.2,2.9-15.3,3.9c-0.1-0.1-0.6,0.2-0.6,0.1
			C1845.7,1476.8,1841.3,1478.2,1836.7,1479z"/>
		<path class="st1" d="M1772.6,1434.7c0.4,8,0.8,16.1,1.2,24.1c0.3,6.7,0.1,14.2,0.6,20.8c0.9,12.5,1.3,24.1,2.5,36.5
			c20.2-11.5,40.3-22.2,58.8-36.2c-1.2-1.9-3.7-4.5-5.7-5.6c-2.5-1.5-4.9-3.3-6.9-5.4c-2.9-3-7.2-4.1-10.4-6.7
			c-1.1-0.9-2.1-1.9-3.4-2.5c-1.1,0-2-0.7-2.7-1.5s-1.2-1.8-2.1-2.4c-1.1-0.7-2.5-0.8-3.6-1.6c-0.7-0.4-1.2-1.1-1.5-1.8
			c0,0.1,0.3-0.3,0.3-0.3c0,0.2-0.2,0-0.2,0.2c-4.3-2.6-8.5-5.4-12.6-8.4c-4-2.8-7.9-5.8-11.9-8.7
			C1774.2,1434.8,1773.5,1434.6,1772.6,1434.7z"/>
		<path class="st3" d="M1863.2,1413.5c1.6,1,3,2.3,4.6,3.3c16.8,11.3,34.4,22.9,49.7,36.3c-1.2,0.8-3.3,2-4.6,2.6
			c-23.8,11.3-50.8,18.9-76.7,23.6c-21.5-15.2-42-29.5-63.5-44.7C1802,1424.3,1832.3,1417.4,1863.2,1413.5z"/>
		<path class="st3" d="M1772.6,1434.5c1.4,26.9,2.7,54.9,4.1,81.8"/>
		<path class="st3" d="M1776.6,1516.3c19.6,13.8,39.3,27.2,58.9,41c0-2.8,0.3-3.8,0.3-8.2c0.1,0.6,0-2.9,0.1-2.3
			c-1.1-23.2-1.6-44.3,0.2-67.5"/>
		<path class="st3" d="M1835.5,1557.3c27.3-6.6,54.7-16.7,80.8-27.1c-1.7-25-1.6-52.2,1-77.2"/>
		<path class="st4" d="M1772.6,1434.5c1.4,26.9,2.7,54.9,4.1,81.8"/>
	</g>
	<g>
		<path class="st1" d="M1983,1479c-1.1,16.8-0.7,30.2-1,45.4c-0.2,10.7,0.5,21.8,0.8,32.5c9.8-12.1,20.9-23.2,32.6-33.6
			c3.3-2.9,6.9-6.1,7.9-10.4c0.7-2.9,3.5-4.4,5.5-6.6c3-3.2,4.4-7.5,6.4-11.5c2.3-4.7,5.6-9,8.8-13.1c3.1-4,6.2-8,9.2-12
			c0.7-0.9,1.5-1.8,2.1-2.7c1.4-2.3,3.3-4.3,5-6.4s3.1-4.6,3.4-7.3c-5.3,2.3-10.8,4.5-16,6.8c-6,2.6-12.5,4.6-18.5,6.9
			c-1.4,0.5-3.2,0.9-4.5,1.6c-3.8,1.7-8.1,1.8-12,3.2c-4.9,1.8-10.2,2.9-15.3,3.9c-0.1-0.1-0.6,0.2-0.6,0.1
			C1991.9,1476.8,1987.6,1478.2,1983,1479z"/>
		<path class="st1" d="M1918.8,1434.7c0.4,8,0.8,16.1,1.2,24.1c0.3,6.7,0.1,14.2,0.6,20.8c0.9,12.5,1.3,24.1,2.5,36.5
			c20.2-11.5,40.3-22.2,58.8-36.2c-1.2-1.9-3.7-4.5-5.7-5.6c-2.5-1.5-4.9-3.3-6.9-5.4c-2.9-3-7.2-4.1-10.4-6.7
			c-1.1-0.9-2.1-1.9-3.4-2.5c-1.1,0-2-0.7-2.7-1.5s-1.2-1.8-2.1-2.4c-1.1-0.7-2.5-0.8-3.6-1.6c-0.7-0.4-1.2-1.1-1.5-1.8
			c0,0.1,0.3-0.3,0.3-0.3c0,0.2-0.2,0-0.2,0.2c-4.3-2.6-8.5-5.4-12.6-8.4c-4-2.8-7.9-5.8-11.9-8.7
			C1920.5,1434.8,1919.8,1434.6,1918.8,1434.7z"/>
		<path class="st3" d="M2009.5,1413.5c1.6,1,3,2.3,4.6,3.3c16.8,11.3,34.4,22.9,49.7,36.3c-1.2,0.8-3.3,2-4.6,2.6
			c-23.8,11.3-50.8,18.9-76.7,23.6c-21.5-15.2-42-29.5-63.5-44.7C1948.3,1424.3,1978.6,1417.4,2009.5,1413.5z"/>
		<path class="st3" d="M1918.8,1434.5c1.4,26.9,2.7,54.9,4.1,81.8"/>
		<path class="st3" d="M1922.9,1516.3c19.6,13.8,39.3,27.2,58.9,41c0-2.8,0.3-3.8,0.3-8.2c0.1,0.6,0-2.9,0.1-2.3
			c-1.1-23.2-1.6-44.3,0.2-67.5"/>
		<path class="st3" d="M1981.8,1557.3c27.3-6.6,54.7-16.7,80.8-27.1c-1.7-25-1.6-52.2,1-77.2"/>
		<path class="st4" d="M1918.8,1434.5c1.4,26.9,2.7,54.9,4.1,81.8"/>
	</g>
</g>
<g id="BALL_AMONG">
	<path class="st0" d="M1872.3,1462c-5.1,16,0.6,34.4,12.5,46.2c11.9,11.8,29.2,17.4,46,17c9.2-0.2,18.7-2.2,26.2-7.5
		c8.3-5.8,13.8-15.1,16.5-24.9c4.7-17.3,0.5-37.4-12.4-49.9c-15.4-15-31.9-16.1-50.1-12.4C1893.2,1434.2,1878.9,1441.3,1872.3,1462z
		"/>
</g>
<g id="Layer_6">
	<g>
		<path class="st1" d="M1991.4,1560.4c-1.1,16.8-0.7,30.2-1,45.4c-0.2,10.7,0.5,21.8,0.8,32.5c9.8-12.1,20.9-23.2,32.6-33.6
			c3.3-2.9,6.9-6.1,7.9-10.4c0.7-2.9,3.5-4.4,5.5-6.6c3-3.2,4.4-7.5,6.4-11.5c2.3-4.7,5.6-9,8.8-13.1c3.1-4,6.2-8,9.2-12
			c0.7-0.9,1.5-1.8,2.1-2.7c1.4-2.3,3.3-4.3,5-6.4s3.1-4.6,3.4-7.3c-5.3,2.3-10.8,4.5-16,6.8c-6,2.6-12.5,4.6-18.5,6.9
			c-1.4,0.5-3.2,0.9-4.5,1.6c-3.8,1.7-8.1,1.8-12,3.2c-4.9,1.8-10.2,2.9-15.3,3.9c-0.1-0.1-0.6,0.2-0.6,0.1
			C2000.3,1558.2,1996,1559.6,1991.4,1560.4z"/>
		<path class="st1" d="M1927.2,1516c0.4,8,0.8,16.1,1.2,24.1c0.3,6.7,0.1,14.2,0.6,20.8c0.9,12.5,1.3,24.1,2.5,36.5
			c20.2-11.5,40.3-22.2,58.8-36.2c-1.2-1.9-3.7-4.5-5.7-5.6c-2.5-1.5-4.9-3.3-6.9-5.4c-2.9-3-7.2-4.1-10.4-6.7
			c-1.1-0.9-2.1-1.9-3.4-2.5c-1.1,0-2-0.7-2.7-1.5s-1.2-1.8-2.1-2.4c-1.1-0.7-2.5-0.8-3.6-1.6c-0.7-0.4-1.2-1.1-1.5-1.8
			c0,0.1,0.3-0.3,0.3-0.3c0,0.2-0.2,0-0.2,0.2c-4.3-2.6-8.5-5.4-12.6-8.4c-4-2.8-7.9-5.8-11.9-8.7
			C1928.9,1516.2,1928.2,1515.9,1927.2,1516z"/>
		<path class="st3" d="M2017.9,1494.8c1.6,1,3,2.3,4.6,3.3c16.8,11.3,34.4,22.9,49.7,36.3c-1.2,0.8-3.3,2-4.6,2.6
			c-23.8,11.3-50.8,18.9-76.7,23.6c-21.5-15.2-42-29.5-63.5-44.7C1956.7,1505.6,1987,1498.8,2017.9,1494.8z"/>
		<path class="st3" d="M1927.2,1515.9c1.4,26.9,2.7,54.9,4.1,81.8"/>
		<path class="st3" d="M1931.3,1597.6c19.6,13.8,39.3,27.2,58.9,41c0-2.8,0.3-3.8,0.3-8.2c0.1,0.6,0-2.9,0.1-2.3
			c-1.1-23.2-1.6-44.3,0.2-67.5"/>
		<path class="st3" d="M1990.2,1638.6c27.3-6.6,54.7-16.7,80.8-27.1c-1.7-25-1.6-52.2,1-77.2"/>
		<path class="st4" d="M1927.2,1515.9c1.4,26.9,2.7,54.9,4.1,81.8"/>
	</g>
	<g>
		<path class="st1" d="M1859.3,1560.4c-1.1,16.8-0.7,30.2-1,45.4c-0.2,10.7,0.5,21.8,0.8,32.5c9.8-12.1,20.9-23.2,32.6-33.6
			c3.3-2.9,6.9-6.1,7.9-10.4c0.7-2.9,3.5-4.4,5.5-6.6c3-3.2,4.4-7.5,6.4-11.5c2.3-4.7,5.6-9,8.8-13.1c3.1-4,6.2-8,9.2-12
			c0.7-0.9,1.5-1.8,2.1-2.7c1.4-2.3,3.3-4.3,5-6.4s3.1-4.6,3.4-7.3c-5.3,2.3-10.8,4.5-16,6.8c-6,2.6-12.5,4.6-18.5,6.9
			c-1.4,0.5-3.2,0.9-4.5,1.6c-3.8,1.7-8.1,1.8-12,3.2c-4.9,1.8-10.2,2.9-15.3,3.9c-0.1-0.1-0.6,0.2-0.6,0.1
			C1868.3,1558.2,1863.9,1559.6,1859.3,1560.4z"/>
		<path class="st1" d="M1795.2,1516c0.4,8,0.8,16.1,1.2,24.1c0.3,6.7,0.1,14.2,0.6,20.8c0.9,12.5,1.3,24.1,2.5,36.5
			c20.2-11.5,40.3-22.2,58.8-36.2c-1.2-1.9-3.7-4.5-5.7-5.6c-2.5-1.5-4.9-3.3-6.9-5.4c-2.9-3-7.2-4.1-10.4-6.7
			c-1.1-0.9-2.1-1.9-3.4-2.5c-1.1,0-2-0.7-2.7-1.5s-1.2-1.8-2.1-2.4c-1.1-0.7-2.5-0.8-3.6-1.6c-0.7-0.4-1.2-1.1-1.5-1.8
			c0,0.1,0.3-0.3,0.3-0.3c0,0.2-0.2,0-0.2,0.2c-4.3-2.6-8.5-5.4-12.6-8.4c-4-2.8-7.9-5.8-11.9-8.7
			C1796.8,1516.2,1796.1,1515.9,1795.2,1516z"/>
		<path class="st3" d="M1885.8,1494.8c1.6,1,3,2.3,4.6,3.3c16.8,11.3,34.4,22.9,49.7,36.3c-1.2,0.8-3.3,2-4.6,2.6
			c-23.8,11.3-50.8,18.9-76.7,23.6c-21.5-15.2-42-29.5-63.5-44.7C1824.6,1505.6,1854.9,1498.8,1885.8,1494.8z"/>
		<path class="st3" d="M1795.2,1515.9c1.4,26.9,2.7,54.9,4.1,81.8"/>
		<path class="st3" d="M1799.2,1597.6c19.6,13.8,39.3,27.2,58.9,41c0-2.8,0.3-3.8,0.3-8.2c0.1,0.6,0-2.9,0.1-2.3
			c-1.1-23.2-1.6-44.3,0.2-67.5"/>
		<path class="st3" d="M1858.1,1638.6c27.3-6.6,54.7-16.7,80.8-27.1c-1.7-25-1.6-52.2,1-77.2"/>
		<path class="st4" d="M1795.2,1515.9c1.4,26.9,2.7,54.9,4.1,81.8"/>
	</g>
</g>
<g id="Layer_3">
	<path class="st3" d="M1865.2,861.2c1.7,44.3-1.6,90.1,0.1,134.4c-47,0.1-86-0.6-133.8-1.4c-1.5-46-0.8-88.7-2.3-134.7
		c11.3,0.2,17.9,0.5,29.7,0.5c23.2-0.4,46.5,0.4,69.7,0.9c11.7,0.3,23.5,0.9,35.2,0.5c9.8-0.4,16.9-7.6,27-9.7
		c0.1,39.3-0.4,78-0.3,117.2c-7.6,7.6-18.7,18.4-25.1,26.8"/>
	<path class="st3" d="M1729.1,859.5c6-2.4,14.3-6.8,22.8-9.1c2.4-0.7,33.6,0.2,35.4,0.2c55.9,0.2,67.4,2.1,103.3,1"/>
	<path class="st3" d="M1996.5,861.3c-1.6,44.3,1.8,90.1,0.2,134.4c47,0,86-0.8,133.8-1.7c1.4-46,0.6-88.7,2-134.7
		c-11.3,0.3-17.9,0.5-29.7,0.6c-23.2-0.3-46.5,0.5-69.7,1.1c-11.7,0.3-23.5,1-35.2,0.5c-9.8-0.4-16.9-7.6-27-9.7
		c0,39.3,0.5,78,0.6,117.2c7.7,7.6,18.8,18.3,25.2,26.7"/>
	<path class="st3" d="M2132.6,859.3c-6-2.3-14.3-6.7-22.8-9.1c-2.4-0.7-33.6,0.3-35.4,0.3c-55.9,0.3-67.4,2.2-103.3,1.2"/>
</g>
<g id="Layer_8">
	<g>
		<path class="st1" d="M299,1577.1c-1.6,26-1,46.8-1.6,70.3c-0.4,16.6,0.8,33.8,1.3,50.4c15.2-18.8,32.4-36,50.4-52
			c5.1-4.6,10.6-9.5,12.2-16.2c1-4.5,5.4-6.8,8.6-10.2c4.7-4.9,6.8-11.7,9.8-17.7c3.6-7.3,8.7-13.9,13.6-20.3
			c4.8-6.2,9.5-12.4,14.3-18.6c1.1-1.4,2.3-2.7,3.2-4.2c2.2-3.6,5.2-6.6,7.7-9.9c2.6-3.3,4.9-7.1,5.2-11.3
			c-8.2,3.5-16.7,7-24.8,10.6c-9.2,4-19.3,7.1-28.7,10.8c-2.2,0.8-4.9,1.4-7,2.4c-5.8,2.7-12.5,2.8-18.6,5
			c-7.5,2.8-15.8,4.5-23.7,6.1c-0.1-0.2-0.9,0.4-1,0.2C312.9,1573.7,306.2,1575.8,299,1577.1z"/>
		<path class="st1" d="M199.8,1508.4c0.6,12.5,1.2,24.9,1.8,37.4c0.5,10.3,0.1,21.9,0.9,32.3c1.4,19.3,2.1,37.2,3.9,56.6
			c31.3-17.8,62.4-34.3,91-56c-1.9-3-5.7-7-8.8-8.7c-3.9-2.3-7.5-5.1-10.7-8.4c-4.4-4.6-11.2-6.3-16.1-10.4
			c-1.7-1.4-3.3-2.9-5.2-3.9c-1.6,0-3.2-1-4.2-2.3s-1.9-2.8-3.2-3.7c-1.7-1.2-3.9-1.3-5.6-2.4c-1-0.7-1.8-1.7-2.3-2.8
			c0,0.1,0.4-0.5,0.4-0.4c0,0.3-0.3,0-0.3,0.3c-6.7-4.1-13.2-8.4-19.5-12.9c-6.1-4.4-12.3-9-18.4-13.5
			C202.3,1508.6,201.2,1508.2,199.8,1508.4z"/>
		<path class="st3" d="M340.1,1475.6c2.4,1.6,4.7,3.5,7.1,5.1c26.1,17.6,53.2,35.5,76.9,56.2c-1.8,1.2-5,3-7.1,4
			c-36.8,17.5-78.7,29.2-118.8,36.6c-33.3-23.5-65.1-45.8-98.4-69.3C245.3,1492.3,292.3,1481.7,340.1,1475.6z"/>
		<path class="st3" d="M199.8,1508.2c2.1,41.6,4.2,85,6.3,126.6"/>
		<path class="st3" d="M206.1,1634.8c30.4,21.4,60.8,42.1,91.2,63.5c0-4.4,0.4-5.8,0.5-12.7c0.2,0.9,0-4.5,0.1-3.6
			c-1.7-36-2.5-68.7,0.3-104.6"/>
		<path class="st3" d="M297.3,1698.2c42.2-10.2,84.8-25.8,125.2-41.9c-2.6-38.8-2.5-80.8,1.6-119.5"/>
		<path class="st4" d="M199.8,1508.2c2.1,41.6,4.2,85,6.3,126.6"/>
	</g>
	<path class="st0" d="M254.7,1326.5c-5.3,16.4,0.6,35.3,12.9,47.5c12.2,12.1,30,17.9,47.2,17.5c9.5-0.2,19.2-2.3,27-7.7
		c8.6-5.9,14.2-15.5,16.9-25.5c4.8-17.8,0.5-38.4-12.7-51.2c-15.8-15.4-32.8-16.5-51.4-12.7C276.2,1297.9,261.5,1305.2,254.7,1326.5
		z"/>
	<g>
		<path class="st1" d="M829,1390.6c-1.6,26-1,46.8-1.6,70.3c-0.4,16.6,0.8,33.8,1.3,50.4c15.2-18.8,32.4-36,50.4-52
			c5.1-4.6,10.6-9.5,12.2-16.2c1-4.5,5.4-6.8,8.6-10.2c4.7-4.9,6.8-11.7,9.8-17.7c3.6-7.3,8.7-13.9,13.6-20.3
			c4.8-6.2,9.5-12.4,14.3-18.6c1.1-1.4,2.3-2.7,3.2-4.2c2.2-3.6,5.2-6.6,7.7-9.9s4.9-7.1,5.2-11.3c-8.2,3.5-16.7,7-24.8,10.6
			c-9.2,4-19.3,7.1-28.7,10.8c-2.2,0.8-4.9,1.4-7,2.4c-5.8,2.7-12.5,2.8-18.6,5c-7.5,2.8-15.8,4.5-23.7,6.1c-0.1-0.2-0.9,0.4-1,0.2
			C842.9,1387.2,836.2,1389.3,829,1390.6z"/>
		<path class="st1" d="M729.8,1321.9c0.6,12.5,1.2,24.9,1.8,37.4c0.5,10.3,0.1,21.9,0.9,32.3c1.4,19.3,2.1,37.2,3.9,56.6
			c31.3-17.8,62.4-34.3,91-56c-1.9-3-5.7-7-8.8-8.7c-3.9-2.3-7.5-5.1-10.7-8.4c-4.4-4.6-11.2-6.3-16.1-10.4
			c-1.7-1.4-3.3-2.9-5.2-3.9c-1.6,0-3.2-1-4.2-2.3s-1.9-2.8-3.2-3.7c-1.7-1.2-3.9-1.3-5.6-2.4c-1-0.7-1.8-1.7-2.3-2.8
			c0,0.1,0.4-0.5,0.4-0.4c0,0.3-0.3,0-0.3,0.3c-6.7-4.1-13.2-8.4-19.5-12.9c-6.1-4.4-12.3-9-18.4-13.5
			C732.3,1322.1,731.2,1321.7,729.8,1321.9z"/>
		<path class="st3" d="M870.1,1289c2.4,1.6,4.7,3.5,7.1,5.1c26.1,17.6,53.2,35.5,76.9,56.2c-1.8,1.2-5,3-7.1,4
			c-36.8,17.5-78.7,29.2-118.8,36.6c-33.3-23.5-65.1-45.8-98.4-69.3C775.3,1305.8,822.2,1295.2,870.1,1289z"/>
		<path class="st3" d="M729.8,1321.6c2.1,41.6,4.2,85,6.3,126.6"/>
		<path class="st3" d="M736.1,1448.2c30.4,21.4,60.8,42.1,91.2,63.5c0-4.4,0.4-5.8,0.5-12.7c0.2,0.9,0-4.5,0.1-3.6
			c-1.7-36-2.5-68.7,0.3-104.6"/>
		<path class="st3" d="M827.3,1511.7c42.2-10.2,84.8-25.8,125.2-41.9c-2.6-38.8-2.5-80.8,1.6-119.5"/>
		<path class="st4" d="M729.8,1321.6c2.1,41.6,4.2,85,6.3,126.6"/>
	</g>
	<path class="st0" d="M789.9,1651.9c-5.3,16.4,0.6,35.3,12.9,47.5c12.2,12.1,30,17.9,47.2,17.5c9.5-0.2,19.2-2.3,27-7.7
		c8.6-5.9,14.2-15.5,16.9-25.5c4.8-17.8,0.5-38.4-12.7-51.2c-15.8-15.4-32.8-16.5-51.4-12.7C811.4,1623.4,796.7,1630.6,789.9,1651.9
		z"/>
</g>
<g id="BALL">
	<path class="st0" d="M1879.4,922.8c-5.3,16.4,0.6,35.3,12.9,47.5s30,17.9,47.2,17.5c9.5-0.2,19.2-2.3,27-7.7
		c8.6-5.9,14.2-15.5,16.9-25.5c4.8-17.8,0.5-38.4-12.7-51.2c-15.8-15.4-32.8-16.5-51.4-12.7C1900.9,894.3,1886.2,901.5,1879.4,922.8
		z"/>
</g>
<g id="Layer_11">
</g>
<text transform="matrix(1 0 0 1 208.4001 634.6501)"><tspan x="0" y="0" class="st5 st7">In</tspan><tspan x="44.4" y="0" class="st8 st7"> the box</tspan></text>
<text transform="matrix(1 0 0 1 720.2059 635.025)"><tspan x="0" y="0" class="st5 st7">On </tspan><tspan x="83.3" y="0" class="st8 st7">the box</tspan></text>
<text transform="matrix(1 0 0 1 1239.3273 634.0803)"><tspan x="0" y="0" class="st5 st7">Under </tspan><tspan x="158.3" y="0" class="st8 st7">the box</tspan></text>
<text transform="matrix(1 0 0 1 1787.7133 635.025)"><tspan x="0" y="0" class="st5 st7">Next </tspan><tspan x="122.3" y="0" class="st8 st7">to the box</tspan></text>
<text transform="matrix(1 0 0 1 153.336 1122.5479)"><tspan x="0" y="0" class="st5 st7">Behind</tspan><tspan x="169.4" y="0" class="st8 st7"> the box</tspan></text>
<text transform="matrix(1 0 0 1 641.1743 1122.5476)"><tspan x="0" y="0" class="st5 st7">In front</tspan><tspan x="172.2" y="0" class="st8 st7"> of the box</tspan></text>
<text transform="matrix(1 0 0 1 1217.0483 1122.5474)"><tspan x="0" y="0" class="st5 st7">Against</tspan><tspan x="183.3" y="0" class="st8 st7"> the box</tspan></text>
<text transform="matrix(1 0 0 1 1717.1392 1122.5751)"><tspan x="0" y="0" class="st5 st7">Between </tspan><tspan x="219.5" y="0" class="st8 st7">the boxes</tspan></text>
<text transform="matrix(1 0 0 1 154.6464 1801.6981)"><tspan x="0" y="0" class="st5 st7">Above</tspan><tspan x="152.8" y="0" class="st8 st7"> the box</tspan></text>
<text transform="matrix(1 0 0 1 688.0475 1802.2444)"><tspan x="0" y="0" class="st5 st7">Below </tspan><tspan x="161.1" y="0" class="st8 st7">the box</tspan></text>
<text transform="matrix(1 0 0 1 1179.8497 1801.6975)"><tspan x="0" y="0" class="st5 st7">Far from</tspan><tspan x="202.8" y="0" class="st8 st7"> the box</tspan></text>
<text transform="matrix(1 0 0 1 1739.0435 1801.6974)"><tspan x="0" y="0" class="st5 st7">Among </tspan><tspan x="186.1" y="0" class="st8 st7">the boxes</tspan></text>
</svg>
