<?xml version="1.0" encoding="utf-8"?>
<!-- Generator: Adobe Illustrator 25.2.3, SVG Export Plug-In . SVG Version: 6.00 Build 0)  -->
<svg version="1.1" id="Layer_1" xmlns="http://www.w3.org/2000/svg" xmlns:xlink="http://www.w3.org/1999/xlink" x="0px" y="0px"
	 width="2345.7px" height="1931.8px" viewBox="0 0 2345.7 1931.8" style="enable-background:new 0 0 2345.7 1931.8;"
	 xml:space="preserve">
<style type="text/css">
	.st0{fill:none;stroke:#000000;stroke-width:3;stroke-miterlimit:10;}
	.st1{fill:none;stroke:#000000;stroke-width:3;stroke-linecap:round;stroke-linejoin:round;stroke-miterlimit:10;}
	.st2{fill:#E84545;stroke:#000000;stroke-miterlimit:10;}
	.st3{fill:#FFFFFF;}
	.st4{fill:#FFFFFF;stroke:#000000;stroke-linecap:round;stroke-linejoin:round;stroke-miterlimit:10;}
	.st5{fill:#FFFFFF;stroke:#000000;stroke-miterlimit:10;}
	.st6{font-family:Helvetica, Arial, Sans-Serif;font-weight:bold;}
	.st7{font-size:92.3773px;}
	.st8{fill:none;stroke:#000000;stroke-width:0.5;stroke-miterlimit:10;}
	.st9{opacity:0.4;fill:none;stroke:#000000;stroke-width:0.75;stroke-miterlimit:10;enable-background:new    ;}
	.st10{fill:none;}
	.st11{fill:none;stroke:#000000;stroke-linecap:round;stroke-linejoin:round;stroke-miterlimit:10;}
	.st12{fill:#FFFFFF;stroke:#B3B3B3;stroke-miterlimit:10;}
	.st13{font-size:50px;}
	.st14{font-family:Helvetica, Arial, Sans-Serif;}
</style>
<g id="Layer_1_1_">
</g>
<g>
	<path class="st0" d="M820.4,1510.7c5.9,34.8,18.4,68.1,41.6,91.4s58.1,35.3,93.1,25.6"/>
	<path class="st1" d="M931.5,1612.6c5.8,8.6,15.8,13.5,26.6,13.2c-8,8.1-14.9,17.2-18.2,28.5"/>
</g>
<path class="st2" d="M725.9,1506.6c-3.5,11.1,0.4,23.8,8.7,32s20.2,12.1,31.9,11.8c6.4-0.2,12.9-1.6,18.2-5.2
	c5.8-4,9.6-10.4,11.4-17.2c3.3-12,0.3-25.9-8.6-34.6c-10.7-10.4-22.1-11.1-34.7-8.6C740.4,1487.3,730.5,1492.2,725.9,1506.6z"/>
<path class="st3" d="M1406,987.7c-1.6,25.9-1,46.6-1.6,70c-0.4,16.6,0.8,33.7,1.3,50.2c15.2-18.7,32.3-35.8,50.3-51.9
	c5.1-4.5,10.6-9.4,12.1-16.1c1-4.5,5.3-6.8,8.5-10.1c4.7-4.9,6.8-11.6,9.8-17.7c3.6-7.3,8.6-13.8,13.6-20.3
	c4.8-6.2,9.5-12.4,14.3-18.5c1.1-1.4,2.3-2.7,3.2-4.2c2.2-3.6,5.1-6.6,7.7-9.9c2.6-3.3,4.9-7.1,5.2-11.2c-8.1,3.5-16.6,7-24.8,10.5
	c-9.2,4-19.2,7.1-28.6,10.7c-2.2,0.8-4.9,1.4-7,2.4c-5.8,2.7-12.5,2.8-18.5,5c-7.5,2.7-15.8,4.5-23.6,6.1c-0.1-0.2-0.9,0.4-1,0.2
	C1419.8,984.2,1413.1,986.4,1406,987.7z"/>
<path class="st3" d="M1307,919.1c0.6,12.4,1.2,24.8,1.8,37.3c0.5,10.3,0.1,21.9,0.9,32.2c1.4,19.3,2.1,37.1,3.9,56.4
	c31.2-17.7,62.2-34.2,90.8-55.9c-1.9-3-5.7-6.9-8.8-8.7c-3.9-2.3-7.5-5.1-10.6-8.3c-4.4-4.6-11.2-6.3-16-10.4
	c-1.7-1.4-3.3-2.9-5.2-3.9c-1.6,0-3.2-1-4.2-2.3s-1.9-2.7-3.2-3.7c-1.7-1.2-3.9-1.3-5.6-2.4c-1-0.7-1.8-1.7-2.3-2.8
	c0,0.1,0.4-0.5,0.4-0.4c0,0.3-0.3,0-0.3,0.3c-6.6-4.1-13.1-8.4-19.5-12.9c-6.1-4.4-12.2-9-18.3-13.4
	C1309.5,919.3,1308.4,919,1307,919.1z"/>
<path class="st4" d="M1446.9,886.4c2.4,1.6,4.6,3.5,7,5.1c26,17.5,53,35.4,76.7,56c-1.8,1.2-5,3-7,4
	c-36.7,17.5-78.5,29.1-118.5,36.5c-33.2-23.4-64.9-45.6-98.1-69.1C1352.4,903.1,1399.2,892.6,1446.9,886.4z"/>
<path class="st4" d="M1307,918.9c2.1,41.5,4.2,84.7,6.3,126.2"/>
<path class="st4" d="M1313.2,1045.1c30.3,21.4,60.6,41.9,90.9,63.3c0-4.4,0.4-5.8,0.5-12.6c0.2,0.9,0-4.4,0.1-3.6
	c-1.7-35.9-2.5-68.5,0.3-104.3"/>
<path class="st4" d="M1404.2,1108.4c42.1-10.2,84.5-25.8,124.8-41.8c-2.6-38.7-2.5-80.6,1.6-119.1"/>
<path class="st5" d="M1307,918.9c2.1,41.5,4.2,84.7,6.3,126.2"/>
<path class="st3" d="M1327.3,861.8c-0.7-0.2-1.4-0.4-2.1-0.6c-14.6,10-35.5,6-50.1,16c-5.8,4-10,9.8-14.8,14.9
	c-7.7,8.3-17.1,15-24.9,23.3c-14,14.9-22.4,35-23.2,55.4s5.9,41.1,18.6,57.2c2,2.5,4.4,5,7.5,5.5c5.7,0.8,9.6-5.2,13.2-9.6
	c6.2-7.6,15.4-12.3,21.5-20c6.2-7.9-3.8-25.9-0.5-35.4c6.4-17.9,22.2-39,41.1-45.6c14.1-0.6,27.7,2.9,41-1.7c3.5-1.2,7-2.7,9.6-5.3
	c4.6-4.5,5.9-11.5,5.7-17.9s-1.8-12.8-1.7-19.3c0.1-5.4,1.5-11,5.2-15.1c5.3-5.8,0.2-7.4-5.5-7.5c-7-0.2-14,0.2-20.9,1.2
	c-3.5,0.5-6.9,1.1-10.3,1.9C1334.2,859.9,1329.7,862.2,1327.3,861.8z"/>
<path class="st2" d="M148.7,1058.4c-3.9,12.3,0.5,26.5,9.6,35.6c9.2,9.1,22.5,13.4,35.4,13.1c7.1-0.2,14.4-1.7,20.2-5.8
	c6.4-4.4,10.6-11.6,12.7-19.1c3.6-13.3,0.4-28.7-9.5-38.4c-11.8-11.5-24.5-12.4-38.5-9.5C164.8,1036.9,153.8,1042.4,148.7,1058.4z"
	/>
<path class="st3" d="M893.9,455.8c-1.6,25.9-1,46.6-1.6,70c-0.4,16.6,0.8,33.7,1.3,50.2c15.2-18.7,32.3-35.8,50.3-51.9
	c5.1-4.5,10.6-9.4,12.1-16.1c1-4.5,5.3-6.8,8.5-10.1c4.7-4.9,6.8-11.6,9.8-17.7C978,473,983,466.5,988,460
	c4.8-6.2,9.5-12.4,14.3-18.5c1.1-1.4,2.3-2.7,3.2-4.2c2.2-3.6,5.1-6.6,7.7-9.9s4.9-7.1,5.2-11.2c-8.1,3.5-16.6,7-24.8,10.5
	c-9.2,4-19.2,7.1-28.6,10.7c-2.2,0.8-4.9,1.4-7,2.4c-5.8,2.7-12.5,2.8-18.5,5c-7.5,2.7-15.8,4.5-23.6,6.1c-0.1-0.2-0.9,0.4-1,0.2
	C907.8,452.4,901,454.5,893.9,455.8z"/>
<path class="st3" d="M794.9,387.3c0.6,12.4,1.2,24.8,1.8,37.3c0.5,10.3,0.1,21.9,0.9,32.2c1.4,19.3,2.1,37.1,3.9,56.4
	c31.2-17.7,62.2-34.2,90.8-55.9c-1.9-3-5.7-6.9-8.8-8.7c-3.9-2.3-7.5-5.1-10.6-8.3c-4.4-4.6-11.2-6.3-16-10.4
	c-1.7-1.4-3.3-2.9-5.2-3.9c-1.6,0-3.2-1-4.2-2.3s-1.9-2.7-3.2-3.7c-1.7-1.2-3.9-1.3-5.6-2.4c-1-0.7-1.8-1.7-2.3-2.8
	c0,0.1,0.4-0.5,0.4-0.4c0,0.3-0.3,0-0.3,0.3c-6.6-4.1-13.1-8.4-19.5-12.9c-6.1-4.4-12.2-9-18.3-13.4
	C797.4,387.5,796.4,387.1,794.9,387.3z"/>
<path class="st4" d="M794.9,387.1c2.1,41.5,4.2,84.7,6.3,126.2"/>
<path class="st4" d="M801.2,513.3c30.3,21.4,60.6,41.9,90.9,63.3c0-4.4,0.4-5.8,0.5-12.6c0.2,0.9,0-4.4,0.1-3.6
	c-1.7-35.9-2.5-68.5,0.3-104.3"/>
<path class="st4" d="M892.1,576.6c42.1-10.2,84.5-25.8,124.8-41.8c-2.6-38.7-2.5-80.6,1.6-119.1"/>
<path class="st5" d="M794.9,387.1c2.1,41.5,4.2,84.7,6.3,126.2"/>
<path class="st2" d="M1631,382.1c-2.7,8.4,0.3,18,6.6,24.3c6.3,6.2,15.3,9.1,24.1,8.9c4.8-0.1,9.8-1.2,13.8-3.9
	c4.4-3,7.2-7.9,8.6-13.1c2.5-9.1,0.3-19.6-6.5-26.2c-8.1-7.9-16.7-8.4-26.3-6.5C1642,367.5,1634.5,371.2,1631,382.1z"/>
<path class="st3" d="M1401.3,452.5c-1.6,25.9-1,46.6-1.6,70c-0.4,16.6,0.8,33.7,1.3,50.2c15.2-18.7,32.3-35.8,50.3-51.9
	c5.1-4.5,10.6-9.4,12.1-16.1c1-4.5,5.3-6.8,8.5-10.1c4.7-4.9,6.8-11.6,9.8-17.7c3.6-7.3,8.6-13.8,13.6-20.3
	c4.8-6.2,9.5-12.4,14.3-18.5c1.1-1.4,2.3-2.7,3.2-4.2c2.2-3.6,5.1-6.6,7.7-9.9s4.9-7.1,5.2-11.2c-8.1,3.5-16.6,7-24.8,10.5
	c-9.2,4-19.2,7.1-28.6,10.7c-2.2,0.8-4.9,1.4-7,2.4c-5.8,2.7-12.5,2.8-18.5,5c-7.5,2.7-15.8,4.5-23.6,6.1c-0.1-0.2-0.9,0.4-1,0.2
	C1415.1,449.1,1408.4,451.2,1401.3,452.5z"/>
<path class="st3" d="M1302.3,384c0.6,12.4,1.2,24.8,1.8,37.3c0.5,10.3,0.1,21.9,0.9,32.2c1.4,19.3,2.1,37.1,3.9,56.4
	c31.2-17.7,62.2-34.2,90.8-55.9c-1.9-3-5.7-6.9-8.8-8.7c-3.9-2.3-7.5-5.1-10.6-8.3c-4.4-4.6-11.2-6.3-16-10.4
	c-1.7-1.4-3.3-2.9-5.2-3.9c-1.6,0-3.2-1-4.2-2.3s-1.9-2.7-3.2-3.7c-1.7-1.2-3.9-1.3-5.6-2.4c-1-0.7-1.8-1.7-2.3-2.8
	c0,0.1,0.4-0.5,0.4-0.4c0,0.3-0.3,0-0.3,0.3c-6.6-4.1-13.1-8.4-19.5-12.9c-6.1-4.4-12.2-9-18.3-13.4
	C1304.8,384.2,1303.7,383.8,1302.3,384z"/>
<path class="st4" d="M1442.2,351.2c2.4,1.6,4.6,3.5,7,5.1c26,17.5,53,35.4,76.7,56c-1.8,1.2-5,3-7,4
	c-36.7,17.5-78.5,29.1-118.5,36.5c-33.2-23.4-64.9-45.6-98.1-69.1C1347.7,367.9,1394.5,357.4,1442.2,351.2z"/>
<path class="st4" d="M1302.3,383.7c2.1,41.5,4.2,84.7,6.3,126.2"/>
<path class="st4" d="M1308.5,510c30.3,21.4,60.6,41.9,90.9,63.3c0-4.4,0.4-5.8,0.5-12.6c0.2,0.9,0-4.4,0.1-3.6
	c-1.7-35.9-2.5-68.5,0.3-104.3"/>
<path class="st4" d="M1399.5,573.3c42.1-10.2,84.5-25.8,124.8-41.8c-2.6-38.7-2.5-80.6,1.6-119.1"/>
<path class="st5" d="M1302.3,383.7c2.1,41.5,4.2,84.7,6.3,126.2"/>
<path class="st3" d="M1944.6,447.6c-1.6,25.9-1,46.6-1.6,70c-0.4,16.6,0.8,33.7,1.3,50.2c15.2-18.7,32.3-35.8,50.3-51.9
	c5.1-4.5,10.6-9.4,12.1-16.1c1-4.5,5.3-6.8,8.5-10.1c4.7-4.9,6.8-11.6,9.8-17.7c3.6-7.3,8.6-13.8,13.6-20.3
	c4.8-6.2,9.5-12.4,14.3-18.5c1.1-1.4,2.3-2.7,3.2-4.2c2.2-3.6,5.1-6.6,7.7-9.9s4.9-7.1,5.2-11.2c-8.1,3.5-16.6,7-24.8,10.5
	c-9.2,4-19.2,7.1-28.6,10.7c-2.2,0.8-4.9,1.4-7,2.4c-5.8,2.7-12.5,2.8-18.5,5c-7.5,2.7-15.8,4.5-23.6,6.1c-0.1-0.2-0.9,0.4-1,0.2
	C1958.5,444.2,1951.7,446.3,1944.6,447.6z"/>
<path class="st3" d="M1845.6,379.1c0.6,12.4,1.2,24.8,1.8,37.3c0.5,10.3,0.1,21.9,0.9,32.2c1.4,19.3,2.1,37.1,3.9,56.4
	c31.2-17.7,62.2-34.2,90.8-55.9c-1.9-3-5.7-6.9-8.8-8.7c-3.9-2.3-7.5-5.1-10.6-8.3c-4.4-4.6-11.2-6.3-16-10.4
	c-1.7-1.4-3.3-2.9-5.2-3.9c-1.6,0-3.2-1-4.2-2.3s-1.9-2.7-3.2-3.7c-1.7-1.2-3.9-1.3-5.6-2.4c-1-0.7-1.8-1.7-2.3-2.8
	c0,0.1,0.4-0.5,0.4-0.4c0,0.3-0.3,0-0.3,0.3c-6.6-4.1-13.1-8.4-19.5-12.9c-6.1-4.4-12.2-9-18.3-13.4
	C1848.2,379.3,1847.1,378.9,1845.6,379.1z"/>
<path class="st4" d="M1985.5,346.4c2.4,1.6,4.6,3.5,7,5.1c26,17.5,53,35.4,76.7,56c-1.8,1.2-5,3-7,4
	c-36.7,17.5-78.5,29.1-118.5,36.5c-33.2-23.4-64.9-45.6-98.1-69.1C1891,363.1,1937.9,352.5,1985.5,346.4z"/>
<path class="st4" d="M1845.6,378.9c2.1,41.5,4.2,84.7,6.3,126.2"/>
<path class="st4" d="M1851.9,505.1c30.3,21.4,60.6,41.9,90.9,63.3c0-4.4,0.4-5.8,0.5-12.6c0.2,0.9,0-4.4,0.1-3.6
	c-1.7-35.9-2.5-68.5,0.3-104.3"/>
<path class="st4" d="M1942.9,568.4c42.1-10.2,84.5-25.8,124.8-41.8c-2.6-38.7-2.5-80.6,1.6-119.1"/>
<path class="st5" d="M1845.6,378.9c2.1,41.5,4.2,84.7,6.3,126.2"/>
<path class="st2" d="M2036.6,494.5c-4.2,13,0.5,27.9,10.2,37.5c9.7,9.6,23.7,14.1,37.3,13.8c7.5-0.2,15.2-1.8,21.3-6.1
	c6.8-4.7,11.2-12.2,13.4-20.2c3.8-14.1,0.4-30.3-10.1-40.5c-12.5-12.2-25.9-13.1-40.6-10.1C2053.5,471.9,2041.9,477.6,2036.6,494.5z
	"/>
<path class="st3" d="M895.9,984.6c-1.6,25.9-1,46.6-1.6,70c-0.4,16.6,0.8,33.7,1.3,50.2c15.2-18.7,32.3-35.8,50.3-51.9
	c5.1-4.5,10.6-9.4,12.1-16.1c1-4.5,5.3-6.8,8.5-10.1c4.7-4.9,6.8-11.6,9.8-17.7c3.6-7.3,8.6-13.8,13.6-20.3
	c4.8-6.2,9.5-12.4,14.3-18.5c1.1-1.4,2.3-2.7,3.2-4.2c2.2-3.6,5.1-6.6,7.7-9.9s4.9-7.1,5.2-11.2c-8.1,3.5-16.6,7-24.8,10.5
	c-9.2,4-19.2,7.1-28.6,10.7c-2.2,0.8-4.9,1.4-7,2.4c-5.8,2.7-12.5,2.8-18.5,5c-7.5,2.7-15.8,4.5-23.6,6.1c-0.1-0.2-0.9,0.4-1,0.2
	C909.8,981.2,903.1,983.3,895.9,984.6z"/>
<path class="st3" d="M797,916.1c0.6,12.4,1.2,24.8,1.8,37.3c0.5,10.3,0.1,21.9,0.9,32.2c1.4,19.3,2.1,37.1,3.9,56.4
	c31.2-17.7,62.2-34.2,90.8-55.9c-1.9-3-5.7-6.9-8.8-8.7c-3.9-2.3-7.5-5.1-10.6-8.3c-4.4-4.6-11.2-6.3-16-10.4
	c-1.7-1.4-3.3-2.9-5.2-3.9c-1.6,0-3.2-1-4.2-2.3s-1.9-2.7-3.2-3.7c-1.7-1.2-3.9-1.3-5.6-2.4c-1-0.7-1.8-1.7-2.3-2.8
	c0,0.1,0.4-0.5,0.4-0.4c0,0.3-0.3,0-0.3,0.3c-6.6-4.1-13.1-8.4-19.5-12.9c-6.1-4.4-12.2-9-18.3-13.4
	C799.5,916.3,798.4,916,797,916.1z"/>
<path class="st4" d="M936.8,883.4c2.4,1.6,4.6,3.5,7,5.1c26,17.5,53,35.4,76.7,56c-1.8,1.2-5,3-7,4C976.8,966,935,977.6,895,985
	c-33.2-23.4-64.9-45.6-98.1-69.1C842.4,900.1,889.2,889.5,936.8,883.4z"/>
<path class="st4" d="M797,915.9c2.1,41.5,4.2,84.7,6.3,126.2"/>
<path class="st4" d="M803.2,1042.1c30.3,21.4,60.6,41.9,90.9,63.3c0-4.4,0.4-5.8,0.5-12.6c0.2,0.9,0-4.4,0.1-3.6
	c-1.7-35.9-2.5-68.5,0.3-104.3"/>
<path class="st4" d="M894.2,1105.4c42.1-10.2,84.5-25.8,124.8-41.8c-2.6-38.7-2.5-80.6,1.6-119.1"/>
<path class="st5" d="M797,915.9c2.1,41.5,4.2,84.7,6.3,126.2"/>
<path class="st2" d="M726,826.9c-4.1,12.9,0.5,27.7,10.1,37.3s23.6,14,37.1,13.7c7.4-0.2,15.1-1.8,21.2-6
	c6.7-4.7,11.1-12.2,13.3-20.1c3.8-14,0.4-30.1-10-40.3c-12.4-12.1-25.7-13-40.4-10C742.8,804.4,731.3,810.1,726,826.9z"/>
<path class="st3" d="M327.3,981.4c-1.6,25.9-1,46.6-1.6,70c-0.4,16.6,0.8,33.7,1.3,50.2c15.2-18.7,32.3-35.8,50.3-51.9
	c5.1-4.5,10.6-9.4,12.1-16.1c1-4.5,5.3-6.8,8.5-10.1c4.7-4.9,6.8-11.6,9.8-17.7c3.6-7.3,8.6-13.8,13.6-20.3
	c4.8-6.2,9.5-12.4,14.3-18.5c1.1-1.4,2.3-2.7,3.2-4.2c2.2-3.6,5.1-6.6,7.7-9.9s4.9-7.1,5.2-11.2c-8.1,3.5-16.6,7-24.8,10.5
	c-9.2,4-19.2,7.1-28.6,10.7c-2.2,0.8-4.9,1.4-7,2.4c-5.8,2.7-12.5,2.8-18.5,5c-7.5,2.7-15.8,4.5-23.6,6.1c-0.1-0.2-0.9,0.4-1,0.2
	C341.2,978,334.4,980.1,327.3,981.4z"/>
<path class="st3" d="M228.3,912.9c0.6,12.4,1.2,24.8,1.8,37.3c0.5,10.3,0.1,21.9,0.9,32.2c1.4,19.3,2.1,37.1,3.9,56.4
	c31.2-17.7,62.2-34.2,90.8-55.9c-1.9-3-5.7-6.9-8.8-8.7c-3.9-2.3-7.5-5.1-10.6-8.3c-4.4-4.6-11.2-6.3-16-10.4
	c-1.7-1.4-3.3-2.9-5.2-3.9c-1.6,0-3.2-1-4.2-2.3s-1.9-2.7-3.2-3.7c-1.7-1.2-3.9-1.3-5.6-2.4c-1-0.7-1.8-1.7-2.3-2.8
	c0,0.1,0.4-0.5,0.4-0.4c0,0.3-0.3,0-0.3,0.3c-6.6-4.1-13.1-8.4-19.5-12.9c-6.1-4.4-12.2-9-18.3-13.4
	C230.8,913.1,229.8,912.7,228.3,912.9z"/>
<path class="st4" d="M368.2,880.1c2.4,1.6,4.6,3.5,7,5.1c26,17.5,53,35.4,76.7,56c-1.8,1.2-5,3-7,4c-36.7,17.5-78.5,29.1-118.5,36.5
	c-33.2-23.4-64.9-45.6-98.1-69.1C273.7,896.8,320.5,886.3,368.2,880.1z"/>
<path class="st4" d="M228.3,912.7c2.1,41.5,4.2,84.7,6.3,126.2"/>
<path class="st4" d="M234.6,1038.9c30.3,21.4,60.6,41.9,90.9,63.3c0-4.4,0.4-5.8,0.5-12.6c0.2,0.9,0-4.4,0.1-3.6
	c-1.7-35.9-2.5-68.5,0.3-104.3"/>
<path class="st4" d="M325.5,1102.2c42.1-10.2,84.5-25.8,124.8-41.8c-2.6-38.7-2.5-80.6,1.6-119.1"/>
<path class="st5" d="M228.3,912.7c2.1,41.5,4.2,84.7,6.3,126.2"/>
<text transform="matrix(1 0 0 1 595.4242 152.1926)" class="st6 st7">Prepositions of Movement</text>
<g>
	<path class="st3" d="M325.2,1510.5c-1,16.6-0.7,29.9-1,44.9c-0.2,10.6,0.5,21.6,0.8,32.2c9.7-12,20.7-23,32.2-33.3
		c3.3-2.9,6.8-6,7.8-10.3c0.7-2.9,3.4-4.3,5.5-6.5c3-3.1,4.4-7.4,6.3-11.3c2.3-4.7,5.5-8.9,8.7-13c3-4,6.1-7.9,9.1-11.9
		c0.7-0.9,1.5-1.7,2-2.7c1.4-2.3,3.3-4.2,5-6.3s3.1-4.5,3.3-7.2c-5.2,2.3-10.7,4.5-15.9,6.8c-5.9,2.6-12.3,4.6-18.3,6.9
		c-1.4,0.5-3.1,0.9-4.5,1.6c-3.7,1.7-8,1.8-11.9,3.2c-4.8,1.8-10.1,2.9-15.1,3.9c-0.1-0.1-0.6,0.2-0.6,0.1
		C334.1,1508.3,329.8,1509.6,325.2,1510.5z"/>
	<path class="st3" d="M261.8,1466.6c0.4,8,0.8,15.9,1.2,23.9c0.3,6.6,0.1,14,0.6,20.6c0.9,12.4,1.3,23.8,2.5,36.1
		c20-11.4,39.8-21.9,58.2-35.8c-1.2-1.9-3.7-4.4-5.6-5.6c-2.5-1.5-4.8-3.3-6.8-5.3c-2.8-2.9-7.1-4-10.3-6.7
		c-1.1-0.9-2.1-1.8-3.3-2.5c-1,0-2-0.7-2.7-1.5s-1.2-1.8-2.1-2.4c-1.1-0.7-2.5-0.8-3.6-1.5c-0.7-0.4-1.2-1.1-1.5-1.8
		c0,0.1,0.2-0.3,0.2-0.3c0,0.2-0.2,0-0.2,0.2c-4.3-2.6-8.4-5.4-12.5-8.3c-3.9-2.8-7.8-5.8-11.7-8.6
		C263.4,1466.7,262.7,1466.4,261.8,1466.6z"/>
	<path class="st4" d="M351.4,1445.6c1.5,1,3,2.2,4.5,3.3c16.7,11.2,34,22.7,49.1,35.9c-1.2,0.8-3.2,1.9-4.5,2.6
		c-23.5,11.2-50.3,18.7-75.9,23.4c-21.3-15-41.6-29.2-62.9-44.2C290.9,1456.3,320.9,1449.5,351.4,1445.6z"/>
	<path class="st4" d="M261.8,1466.4c1.4,26.6,2.7,54.3,4,80.9"/>
	<path class="st4" d="M265.8,1547.3c19.4,13.7,38.8,26.9,58.3,40.6c0-2.8,0.3-3.7,0.3-8.1c0.1,0.6,0-2.8,0.1-2.3
		c-1.1-23-1.6-43.9,0.2-66.8"/>
	<path class="st4" d="M324.1,1587.8c27-6.5,54.2-16.5,80-26.8c-1.7-24.8-1.6-51.7,1-76.3"/>
	<path class="st5" d="M261.8,1466.4c1.4,26.6,2.7,54.3,4,80.9"/>
</g>
<g>
	<path class="st3" d="M896.3,1486.7c-1.6,26-1,46.8-1.6,70.3c-0.4,16.6,0.8,33.8,1.3,50.4c15.2-18.8,32.4-36,50.4-52
		c5.1-4.6,10.6-9.5,12.2-16.2c1-4.5,5.4-6.8,8.6-10.2c4.7-4.9,6.8-11.7,9.8-17.7c3.6-7.3,8.7-13.9,13.6-20.3
		c4.8-6.2,9.5-12.4,14.3-18.6c1.1-1.4,2.3-2.7,3.2-4.2c2.2-3.6,5.2-6.6,7.7-9.9c2.6-3.3,4.9-7.1,5.2-11.3c-8.2,3.5-16.7,7-24.8,10.6
		c-9.2,4-19.3,7.1-28.7,10.8c-2.2,0.8-4.9,1.4-7,2.4c-5.8,2.7-12.5,2.8-18.6,5c-7.5,2.8-15.8,4.5-23.7,6.1c-0.1-0.2-0.9,0.4-1,0.2
		C910.2,1483.2,903.5,1485.4,896.3,1486.7z"/>
	<path class="st3" d="M797.1,1418c0.6,12.5,1.2,24.9,1.8,37.4c0.5,10.3,0.1,21.9,0.9,32.3c1.4,19.3,2.1,37.2,3.9,56.6
		c31.3-17.8,62.4-34.3,91-56c-1.9-3-5.7-7-8.8-8.7c-3.9-2.3-7.5-5.1-10.7-8.4c-4.4-4.6-11.2-6.3-16.1-10.4c-1.7-1.4-3.3-2.9-5.2-3.9
		c-1.6,0-3.2-1-4.2-2.3s-1.9-2.8-3.2-3.7c-1.7-1.2-3.9-1.3-5.6-2.4c-1-0.7-1.8-1.7-2.3-2.8c0,0.1,0.4-0.5,0.4-0.4
		c0,0.3-0.3,0-0.3,0.3c-6.7-4.1-13.2-8.4-19.5-12.9c-6.1-4.4-12.3-9-18.4-13.5C799.6,1418.2,798.5,1417.8,797.1,1418z"/>
	<path class="st4" d="M937.4,1385.1c2.4,1.6,4.7,3.5,7.1,5.1c26.1,17.6,53.2,35.5,76.9,56.2c-1.8,1.2-5,3-7.1,4
		c-36.8,17.5-78.7,29.2-118.8,36.6c-33.3-23.5-65.1-45.8-98.4-69.3C842.6,1401.9,889.5,1391.3,937.4,1385.1z"/>
	<path class="st4" d="M797.1,1417.7c2.1,41.6,4.2,85,6.3,126.6"/>
	<path class="st4" d="M803.3,1544.3c30.4,21.4,60.8,42.1,91.2,63.5c0-4.4,0.4-5.8,0.5-12.7c0.2,0.9,0-4.5,0.1-3.6
		c-1.7-36-2.5-68.7,0.3-104.6"/>
	<path class="st4" d="M894.5,1607.8c42.2-10.2,84.8-25.8,125.2-41.9c-2.6-38.8-2.5-80.8,1.6-119.5"/>
	<path class="st5" d="M797.1,1417.7c2.1,41.6,4.2,85,6.3,126.6"/>
</g>
<path class="st1" d="M1630,431.3c-23.4,26.2-39.6,40.4-67.4,61.9"/>
<path class="st1" d="M1564.6,462.3c3.9,10,3.1,21.6-2,31c9.8-2.5,19.9-3.4,29.9,0"/>
<g>
	<path class="st1" d="M2122.4,462.2c19.6-29.1,33.7-45.5,58.2-70.5"/>
	<path class="st1" d="M2182.9,422.6c-5.2-9.3-6.1-21-2.2-31c-9.3,3.8-19.2,6.1-29.6,4.1"/>
</g>
<path class="st0" d="M824.6,836.4c30.8-15.3,65.3-25.3,99.6-22.3s68.4,20.6,85.8,50.3"/>
<path class="st2" d="M1343.2,895.4c0,13.5,8.8,26.3,20.9,32.5c12,6.2,26.7,6.3,39.5,1.9c7-2.4,13.8-6.3,18.4-12.1
	c5-6.5,7-15,6.6-23.1c-0.6-14.5-8.7-28.9-21.7-35.4c-15.5-7.8-28.4-4.6-41.5,2.6C1352.5,868.9,1343.2,877.8,1343.2,895.4z"/>
<g>
	<path class="st8" d="M1237.3,955.8c2.2-69.8,77.6-88.6,144.8-100.6"/>
	<path class="st8" d="M1251.8,969.3c6.3-27.3,76.3-59.5,101.9-49.2"/>
	<path class="st8" d="M1254,928.4c23.2-39.8,64.3-50.9,92.4-57"/>
	<path class="st8" d="M1270.8,923.2c19.3-19.1,34.9-33.4,69.7-38.3"/>
	<path class="st8" d="M1261.2,941c21.3-19,39.2-37,65.1-43.7"/>
	<path class="st8" d="M1287.8,927.3c9.5-8.4,28.4-18.4,46.9-19.9"/>
</g>
<path class="st3" d="M1942.6,983.7c-1.6,25.9-1,46.6-1.6,70c-0.4,16.6,0.8,33.7,1.3,50.2c15.2-18.7,32.3-35.8,50.3-51.9
	c5.1-4.5,10.6-9.4,12.1-16.1c1-4.5,5.3-6.8,8.5-10.1c4.7-4.9,6.8-11.6,9.8-17.7c3.6-7.3,8.6-13.8,13.6-20.3
	c4.8-6.2,9.5-12.4,14.3-18.5c1.1-1.4,2.3-2.7,3.2-4.2c2.2-3.6,5.1-6.6,7.7-9.9s4.9-7.1,5.2-11.2c-8.1,3.5-16.6,7-24.8,10.5
	c-9.2,4-19.2,7.1-28.6,10.7c-2.2,0.8-4.9,1.4-7,2.4c-5.8,2.7-12.5,2.8-18.5,5c-7.5,2.7-15.8,4.5-23.6,6.1c-0.1-0.2-0.9,0.4-1,0.2
	C1956.5,980.3,1949.7,982.4,1942.6,983.7z"/>
<path class="st3" d="M1843.6,915.2c0.6,12.4,1.2,24.8,1.8,37.3c0.5,10.3,0.1,21.9,0.9,32.2c1.4,19.3,2.1,37.1,3.9,56.4
	c31.2-17.7,62.2-34.2,90.8-55.9c-1.9-3-5.7-6.9-8.8-8.7c-3.9-2.3-7.5-5.1-10.6-8.3c-4.4-4.6-11.2-6.3-16-10.4
	c-1.7-1.4-3.3-2.9-5.2-3.9c-1.6,0-3.2-1-4.2-2.3s-1.9-2.7-3.2-3.7c-1.7-1.2-3.9-1.3-5.6-2.4c-1-0.7-1.8-1.7-2.3-2.8
	c0,0.1,0.4-0.5,0.4-0.4c0,0.3-0.3,0-0.3,0.3c-6.6-4.1-13.1-8.4-19.5-12.9c-6.1-4.4-12.2-9-18.3-13.4
	C1846.1,915.4,1845.1,915,1843.6,915.2z"/>
<path class="st4" d="M1983.5,882.4c2.4,1.6,4.6,3.5,7,5.1c26,17.5,53,35.4,76.7,56c-1.8,1.2-5,3-7,4
	c-36.7,17.5-78.5,29.1-118.5,36.5c-33.2-23.4-64.9-45.6-98.1-69.1C1889,899.1,1935.8,888.6,1983.5,882.4z"/>
<path class="st4" d="M1843.6,914.9c2.1,41.5,4.2,84.7,6.3,126.2"/>
<path class="st4" d="M1849.9,1041.2c30.3,21.4,60.6,41.9,90.9,63.3c0-4.4,0.4-5.8,0.5-12.6c0.2,0.9,0-4.4,0.1-3.6
	c-1.7-35.9-2.5-68.5,0.3-104.3"/>
<path class="st4" d="M1940.8,1104.5c42.1-10.2,84.5-25.8,124.8-41.8c-2.6-38.7-2.5-80.6,1.6-119.1"/>
<path class="st5" d="M1843.6,914.9c2.1,41.5,4.2,84.7,6.3,126.2"/>
<g>
	<path class="st3" d="M2015.5,948.7c-5.6-4.2-15.1-12.6-21.5-15.5c-10.4-4.7-16.3-6.9-27.6-7.8c-18.9-1.6-15.6-1.3-35.2,4.5
		s-6.9,36.6,3.1,36.8c19,0.3,44,8.5,56.4,24.3c5,13.2,6.2,27.1,14.7,38.3c2.2,2.9,4.8,5.7,8.1,7.4c5.7,2.9,12.8,1.9,18.8-0.4
		s11.6-5.8,17.7-7.8c5.1-1.6,10.9-2.1,16,0.1c7.2,3.2,8,2.5,6.3-3c-2.1-6.7-5.2-8.1-8.4-14.3c-1.6-3.1-7-11.3-8.8-14.3
		C2053.7,994.7,2029.7,959.4,2015.5,948.7z"/>
	<path class="st2" d="M2026.4,1010.1c-12.8,4.3-22.1,16.8-24.1,30.2c-2,13.4,2.6,27.3,10.9,38c4.5,5.9,10.4,11.1,17.4,13.5
		c7.7,2.7,16.4,1.8,24-1.2c13.5-5.2,24.5-17.5,26.5-31.9c2.4-17.2-4.8-28.4-15.8-38.5C2054.4,1010.4,2043,1004.5,2026.4,1010.1z"/>
	<g>
		<path class="st8" d="M1935.1,929.2c66.8-20.4,108.9,45,141.7,104.8"/>
		<path class="st8" d="M1927,947.3c27.9-2.8,80.8,53.2,79.3,80.7"/>
		<path class="st8" d="M1966.4,936.2c45.1,9.2,68.8,44.5,83.6,69.2"/>
		<path class="st8" d="M1976.8,950.4c24.3,12.1,42.8,22.3,58.6,53.7"/>
		<path class="st8" d="M1956.8,947.1c24.8,14.1,47.6,25.2,62.3,47.6"/>
		<path class="st8" d="M1978.4,967.9c11,6.3,26.5,21,33.9,38"/>
	</g>
</g>
<path class="st9" d="M380.5,1629.5c-12.1,6.9-40.7,5.6-56.8,0.6"/>
<path class="st9" d="M382.4,1635.6c-17.3,6.7-40.2,7.7-59.2,3.9"/>
<path class="st9" d="M380.3,1633.3c-16.5,5.5-36.1,5.3-55.1,2.5"/>
<path class="st9" d="M219.2,1560.5c-11-9.4-22.6-25.5-19.8-44.7"/>
<path class="st9" d="M207.5,1557.4c-5.2-6.3-8.8-10.7-11.2-15.6c-5.8-11.9-6.2-23.4-5.1-36.1"/>
<path class="st9" d="M211.2,1561.5c-13.9-13.8-16-26.5-16.3-40"/>
<path class="st9" d="M229.9,1397.3c1-6.1,24.4-15.9,36.1-20.6"/>
<path class="st9" d="M225.5,1388.8c11.8-10.4,23.8-15.6,39.5-17.4"/>
<path class="st9" d="M230.2,1390c9.9-7.8,18.7-11.1,30.6-14.3"/>
<path class="st9" d="M388.9,1368.6c11.6-0.4,39.3,14.6,45.5,32.5"/>
<path class="st9" d="M389,1361.7c22.2,0.7,50.2,22.9,53.4,35.8"/>
<path class="st9" d="M391.7,1365.5c16,1.7,35.5,13.8,44,29"/>
<polygon class="st10" points="262.5,1777.7 272.5,1777.7 272.5,1777.7 "/>
<path class="st9" d="M464.5,1563c9.1-11.2,17.8-29,11.7-47.5"/>
<path class="st9" d="M477.3,1567.8c4.1-7.1,6.8-12.1,8.3-17.3c3.6-12.8,2-24.1-1.3-36.4"/>
<path class="st9" d="M472.5,1562.7c11.3-16,11.1-28.9,9-42.2"/>
<g>
	<path class="st3" d="M338.3,435.4c1.6,25.9,0.5,46.6,1.6,70c0.7,16.6,0.1,33.7-1.3,50.2c-15.2-18.7-32.3-35.8-50.3-51.9
		c-5.1-4.5-10.6-9.4-12.1-16.1c-1-4.5-5.3-6.8-8.5-10.1c-4.7-4.9-6.8-11.6-9.8-17.7c-3.6-7.3-8.6-13.8-13.6-20.3
		c-4.8-6.2-9.5-12.4-14.3-18.5c-1.1-1.4-2.3-2.7-3.2-4.2c-2.2-3.6-5.1-6.6-7.7-9.9c-2.6-3.3-4.9-7.1-5.2-11.2
		c8.1,3.5,16.6,7,24.8,10.5c9.2,4,19.2,7.1,28.6,10.7c2.2,0.8,4.9,1.4,7,2.4c5.8,2.7,12.5,2.8,18.5,5c7.5,2.7,15.8,4.5,23.6,6.1
		c0.1-0.2,0.9,0.4,1,0.2C324.4,432,331.1,434.1,338.3,435.4z"/>
	<path class="st3" d="M437.2,366.9c-0.6,12.4-1.2,24.8-1.8,37.3c-0.5,10.3-0.1,21.9-0.9,32.2c-1.4,19.3-2.1,37.1-3.9,56.4
		c-31.2-17.7-62.2-34.2-90.8-55.9c1.9-3,5.7-6.9,8.8-8.7c3.9-2.3,7.5-5.1,10.6-8.3c4.4-4.6,11.2-6.3,16-10.4
		c1.7-1.4,3.3-2.9,5.2-3.9c1.6,0,3.2-1,4.2-2.3s1.9-2.7,3.2-3.7c1.7-1.2,3.9-1.3,5.6-2.4c1-0.7,1.8-1.7,2.3-2.8
		c0,0.1-0.4-0.5-0.4-0.4c0,0.3,0.3,0,0.3,0.3c6.6-4.1,13.1-8.4,19.5-12.9c6.1-4.4,12.2-9,18.3-13.4
		C434.7,367.1,435.8,366.7,437.2,366.9z"/>
	<path class="st4" d="M297.4,334.2c-2.4,1.6-4.6,3.5-7,5.1c-26,17.5-53,35.4-76.7,56c1.8,1.2,5,3,7,4c36.4,17.3,77.9,29,117.6,36.3
		c0.3,0.1,0.6,0.1,0.9,0.2c33.2-23.4,64.9-45.6,98.1-69.1C391.8,350.9,345,340.3,297.4,334.2z"/>
	<path class="st4" d="M437.2,366.7c-2.1,41.5-4.2,84.7-6.3,126.2"/>
	<path class="st4" d="M431,492.9c-30.3,21.4-60.6,41.9-90.9,63.3c0-4.4-0.4-5.8-0.5-12.6c-0.2,0.9,0-4.4-0.1-3.6
		c1.7-35.9,2.5-68.5-0.3-104.3"/>
	<path class="st4" d="M340,556.2c-42.1-10.2-84.5-25.8-124.8-41.8c2.6-38.7,2.5-80.6-1.6-119.1"/>
	<path class="st5" d="M437.2,366.7c-2.1,41.5-4.2,84.7-6.3,126.2"/>
</g>
<path class="st11" d="M437.2,366.9c8.2-9.2,17.5-16.7,28.5-24.1c-1.8,51.8-3,103.8-4.8,155.6c-10.1,2.7-21.1,0.1-29.9-5.5"/>
<path class="st4" d="M340,556.2c0.2,2.6,12.3,10.9,24.4,18.4c9.7-60.7,6.9-119.2,5.4-179.3c-11.4,9.5-31.7,28.9-30.8,37.7
	c0.1,0.6,0,2,0.1,3.6c1.2,16.7,2.4,36.9,2.1,55.7C341.1,513.1,338.4,538.5,340,556.2z"/>
<path class="st11" d="M795,386.9c-7.9-8-13.2-14.4-23.1-23.2c50.6-11.2,102.4-23.5,154.3-32c3.1,9.6,4.5,14.8,8.6,22.8"/>
<path class="st4" d="M893.9,455.8c0.9,8.3,7.7,24.8,20.7,32.3c61.9-18.6,93.5-28.9,116.8-41.1c-5.9-7.6-13.5-24.8-12.9-31.4"/>
<path class="st4" d="M934.8,354.6c2.4,1.6,4.6,3.5,7,5.1c26,17.5,53,35.4,76.7,56c-1.8,1.2-5,3-7,4c-36.7,17.5-78.5,29.1-118.5,36.5
	c-33.2-23.4-64.9-45.6-98.1-69.1C840.3,371.2,887.1,360.7,934.8,354.6z"/>
<path class="st2" d="M858.2,356.2c-5.3,16.4,0.6,35.3,12.9,47.5s30,17.9,47.2,17.5c9.5-0.2,19.2-2.3,27-7.7
	c8.6-5.9,14.2-15.5,16.9-25.5c4.8-17.8,0.5-38.4-12.7-51.2c-15.8-15.4-32.8-16.5-51.4-12.7C879.7,327.6,865,334.9,858.2,356.2z"/>
<path class="st2" d="M1488.7,1483.7c-3.5,11.1,0.4,23.8,8.7,32s20.2,12.1,31.9,11.8c6.4-0.2,12.9-1.6,18.2-5.2
	c5.8-4,9.6-10.4,11.4-17.2c3.3-12,0.3-25.9-8.6-34.6c-10.7-10.4-22.1-11.1-34.7-8.6C1503.2,1464.4,1493.3,1469.3,1488.7,1483.7z"/>
<g>
	<path class="st1" d="M1475.5,1456.3c-25.7-23.9-39.7-40.3-60.6-68.5"/>
	<path class="st1" d="M1445.7,1390.4c-10,3.7-21.7,2.7-30.9-2.6c2.3,9.8,3.1,19.9-0.6,29.9"/>
</g>
<path class="st2" d="M1960.6,1426.1c1.7-11.5-4.2-23.4-13.7-30.2c-9.5-6.8-21.9-8.7-33.3-6.5c-6.3,1.2-12.5,3.6-17.1,8
	c-5.1,4.9-7.8,11.8-8.5,18.8c-1.3,12.4,3.8,25.6,14,32.7c12.2,8.5,23.6,7.4,35.6,2.9C1949.4,1447.5,1958.4,1441,1960.6,1426.1z"/>
<g>
	<path class="st1" d="M1978.1,1451c29.2,19.4,45.6,33.5,70.8,57.9"/>
	<path class="st1" d="M2018,1511.4c9.3-5.3,21-6.2,30.9-2.4c-3.9-9.3-6.2-19.2-4.2-29.6"/>
</g>
<path class="st2" d="M509.8,465c-5.3,16.4,0.6,35.3,12.9,47.5c12.2,12.1,30,17.9,47.2,17.5c9.5-0.2,19.2-2.3,27-7.7
	c8.6-5.9,14.2-15.5,16.9-25.5c4.8-17.8,0.5-38.4-12.7-51.2c-15.8-15.4-32.8-16.5-51.4-12.7C531.2,436.4,516.6,443.7,509.8,465z"/>
<g id="Layer_12">
	<path class="st11" d="M1266,1397.2c21.4-3.4,45.9-3.3,86.4,0c2.6,25,1.3,52,3.8,77c37.8-3,59.5-2.6,87.8,2.2
		c2.4,25.2,0.3,52.3,2.7,77.4c29.1-4,63.4-4.1,91.8,3.6c1.5,19.8-1.3,42.7,0.2,62.5c36-3.2,66.6-2.5,97.6-0.1
		c-0.5,14.1-1.1,32.5-1.6,46.6"/>
	<path class="st11" d="M1769.6,1403.3c21.4-3.4,45.9-3.3,86.4,0c2.6,25,1.3,52,3.8,77c37.8-3,59.5-2.6,87.8,2.2
		c2.4,25.2,0.3,52.3,2.7,77.4c29.1-4,63.4-4.1,91.8,3.6c1.5,19.8-1.3,42.7,0.2,62.5c36-3.2,66.6-2.5,97.6-0.1
		c-0.5,14.1-1.1,32.5-1.6,46.6"/>
</g>
<g id="Layer_10">
</g>
<g id="Layer_9">
	<g>
		<path class="st1" d="M911.9,309c-2.9-35-2.1-56.6,1.5-91.5"/>
		<path class="st1" d="M934.5,240.2c-9.9-4-17.8-12.6-21.1-22.8c-4.9,8.8-11.2,16.8-20.6,21.7"/>
	</g>
	<g>
		<path class="st1" d="M246.1,1075.6c34.9-3.2,142.8-3.7,177.7-0.5"/>
		<path class="st1" d="M401.4,1096.4c3.9-9.9,12.4-18,22.6-21.3c-8.9-4.8-16.9-11-21.9-20.4"/>
	</g>
	<path class="st1" d="M981.7,856.5c10.7-0.8,21.6,3.4,29,11.1c0.5-10.1,2.6-20,8.8-28.6"/>
	<g>
		<path class="st1" d="M483,476.9c-34.9,3.3-56.5,2.8-91.5-0.3"/>
		<path class="st1" d="M414,455.3c-3.9,10-12.4,18-22.5,21.4c8.9,4.8,16.9,11,22,20.3"/>
	</g>
</g>
<g id="Layer_5">
</g>
<g id="BALL_AMONG">
</g>
<g id="Layer_6">
</g>
<g id="Layer_3">
</g>
<g id="Layer_8">
</g>
<g id="BALL">
</g>
<g id="Layer_11">
	<path class="st12" d="M292.7,1364.8c-4.1,12.9,0.5,27.8,10.1,37.3c9.6,9.6,23.6,14.1,37.2,13.7c7.5-0.2,15.1-1.8,21.2-6.1
		c6.7-4.7,11.2-12.2,13.3-20.1c3.8-14,0.4-30.2-10-40.3c-12.4-12.1-25.8-13-40.5-10C309.6,1342.4,298.1,1348.1,292.7,1364.8z"/>
	<path class="st2" d="M414.6,1439.7c-4.1,12.9,0.5,27.8,10.1,37.3c9.6,9.6,23.6,14.1,37.2,13.7c7.5-0.2,15.1-1.8,21.2-6.1
		c6.7-4.7,11.2-12.2,13.3-20.1c3.8-14,0.4-30.2-10-40.3c-12.4-12.1-25.8-13-40.5-10C431.5,1417.2,420,1423,414.6,1439.7z"/>
	<path class="st12" d="M395.4,1598.3c-4.7,12.7-0.8,27.8,8.4,37.8s22.9,15.1,36.5,15.4c7.5,0.2,15.1-1.1,21.5-5.1
		c7-4.4,11.7-11.7,14.2-19.5c4.4-13.8,1.8-30.1-8.1-40.7c-11.9-12.7-25.2-14.2-40-11.9C413.3,1576.6,401.5,1581.8,395.4,1598.3z"/>
	<path class="st12" d="M215.2,1603.7c-4.7,12.7-0.8,27.8,8.4,37.8s22.9,15.1,36.5,15.4c7.5,0.2,15.1-1.1,21.5-5.1
		c7-4.4,11.7-11.7,14.2-19.5c4.4-13.8,1.8-30.1-8.1-40.7c-11.9-12.7-25.2-14.2-40-11.9C233.1,1582,221.3,1587.2,215.2,1603.7z"/>
	<path class="st12" d="M170.4,1439.7c-4.1,12.9,0.5,27.8,10.1,37.3c9.6,9.6,23.6,14.1,37.2,13.7c7.5-0.2,15.1-1.8,21.2-6.1
		c6.7-4.7,11.2-12.2,13.3-20.1c3.8-14,0.4-30.2-10-40.3c-12.4-12.1-25.8-13-40.5-10C187.3,1417.2,175.8,1423,170.4,1439.7z"/>
</g>
<text transform="matrix(1 0 0 1 219.2 681.973)"><tspan x="0" y="0" class="st6 st13">Into</tspan><tspan x="91.6" y="0" class="st14 st13"> the box</tspan></text>
<text transform="matrix(1 0 0 1 746.8361 681.973)"><tspan x="0" y="0" class="st6 st13">Out </tspan><tspan x="100" y="0" class="st14 st13">of the box</tspan></text>
<text transform="matrix(1 0 0 1 1263.7996 681.9731)"><tspan x="0" y="0" class="st6 st13">Toward</tspan><tspan x="177.8" y="0" class="st14 st13"> the box</tspan></text>
<text transform="matrix(1 0 0 1 1761.9443 682.9731)"><tspan x="0" y="0" class="st6 st13">Away </tspan><tspan x="144.5" y="0" class="st14 st13">from the box</tspan></text>
<text transform="matrix(1 0 0 1 209.0885 1224.9431)"><tspan x="0" y="0" class="st6 st13">Past</tspan><tspan x="105.6" y="0" class="st14 st13"> the box</tspan></text>
<text transform="matrix(1 0 0 1 761.0098 1226.9379)"><tspan x="0" y="0" class="st6 st13">Over</tspan><tspan x="114" y="0" class="st14 st13"> the box</tspan></text>
<text transform="matrix(1 0 0 1 1287.8 1226.9379)"><tspan x="0" y="0" class="st6 st13">Onto</tspan><tspan x="116.6" y="0" class="st14 st13"> the box</tspan></text>
<text transform="matrix(1 0 0 1 1849.8997 1224.9427)"><tspan x="0" y="0" class="st6 st13">Off </tspan><tspan x="86.1" y="0" class="st14 st13">the box</tspan></text>
<text transform="matrix(1 0 0 1 178.8984 1777.6775)"><tspan x="0" y="0" class="st6 st13">Around</tspan><tspan x="177.7" y="0" class="st14 st13"> the box</tspan></text>
<text transform="matrix(1 0 0 1 746.8361 1777.6772)"><tspan x="0" y="0" class="st6 st13">Under </tspan><tspan x="158.3" y="0" class="st14 st13">the box</tspan></text>
<text transform="matrix(1 0 0 1 1309.3003 1777.6777)"><tspan x="0" y="0" class="st6 st13">Up</tspan><tspan x="66.7" y="0" class="st14 st13"> the stairs</tspan></text>
<text transform="matrix(1 0 0 1 1817.1943 1777.6777)"><tspan x="0" y="0" class="st6 st13">Down </tspan><tspan x="150" y="0" class="st14 st13">the stairs</tspan></text>
</svg>
